<?xml version="1.0" encoding="utf-8"?>
<!-- Generator: Adobe Illustrator 21.0.0, SVG Export Plug-In . SVG Version: 6.00 Build 0)  -->
<svg version="1.1" id="Layer_1" xmlns="http://www.w3.org/2000/svg" xmlns:xlink="http://www.w3.org/1999/xlink" x="0px" y="0px"
	 viewBox="0 0 554.1 284.2" style="enable-background:new 0 0 554.1 284.2;" xml:space="preserve">
<style type="text/css">
	.st0{fill:url(#SVGID_1_);}
	.st1{opacity:0.9;}
	.st2{fill:#778A91;}
	.st3{fill:#296BB5;}
	.st4{fill:#6FCBD6;}
	.st5{fill:url(#SVGID_2_);}
	.st6{fill:#939598;}
	.st7{fill:url(#SVGID_3_);}
	.st8{fill:url(#SVGID_4_);}
	.st9{opacity:0.58;clip-path:url(#SVGID_8_);}
	.st10{clip-path:url(#SVGID_10_);fill:none;}
	.st11{opacity:0.49;clip-path:url(#SVGID_10_);}
	.st12{fill:#FFFFFF;}
	.st13{opacity:0.3;}
	.st14{opacity:0.7;}
	.st15{opacity:0.43;clip-path:url(#SVGID_14_);}
	.st16{clip-path:url(#SVGID_16_);fill:none;}
	.st17{opacity:0.35;clip-path:url(#SVGID_16_);}
	.st18{fill:url(#SVGID_17_);}
	.st19{fill:url(#SVGID_18_);}
	.st20{opacity:0.58;clip-path:url(#SVGID_22_);}
	.st21{clip-path:url(#SVGID_24_);fill:none;}
	.st22{opacity:0.49;clip-path:url(#SVGID_24_);}
	.st23{fill:url(#SVGID_25_);}
	.st24{opacity:0.43;clip-path:url(#SVGID_29_);}
	.st25{clip-path:url(#SVGID_31_);fill:none;}
	.st26{opacity:0.35;clip-path:url(#SVGID_31_);}
	.st27{fill:none;stroke:#000000;stroke-width:0.25;stroke-miterlimit:10;}
</style>
<g class="st1">
	<path class="st2" d="M166.7,91.9c1.6,0,3,0.6,4.1,1.7c1.2,1.2,1.7,2.6,1.7,4.2v55.8c0,9.7-3.5,17.9-10.4,24.7
		c-6.9,6.8-15.1,10.2-24.8,10.2c-9.7,0-18-3.4-24.8-10.3c-6.9-6.9-10.3-15.1-10.3-24.8c0-9.7,3.4-18,10.3-24.8
		c6.9-6.9,15.1-10.3,24.8-10.3c8.8,0,16.6,2.9,23.2,8.8V97.8c0-1.6,0.6-3,1.7-4.2c1.2-1.1,2.5-1.7,4.1-1.7H166.7z M121,137.1
		c-4.5,4.5-6.8,10-6.8,16.5c0,6.4,2.3,11.9,6.8,16.4c4.5,4.5,10,6.8,16.5,6.8c6.4,0,11.9-2.3,16.4-6.8c4.5-4.5,6.8-10,6.8-16.4
		c0-6.4-2.3-11.9-6.8-16.5c-4.5-4.5-10-6.8-16.4-6.8C131,130.3,125.5,132.6,121,137.1z"/>
	<path class="st2" d="M197.4,159.4c0,4.8,1.7,8.8,5,12.2c3.4,3.3,7.5,5,12.3,5c4.8,0,8.8-1.7,12.2-5c3.3-3.4,5-7.5,5-12.2v-35.2
		c0-1.6,0.6-3,1.7-4.2c1.2-1.2,2.6-1.7,4.2-1.7h0.1c1.6,0,3,0.6,4.1,1.7c1.2,1.2,1.7,2.6,1.7,4.2v35.2c0,8-2.9,14.9-8.6,20.6
		c-5.7,5.7-12.6,8.6-20.6,8.6c-8.1,0-14.9-2.9-20.7-8.6c-5.7-5.7-8.6-12.6-8.6-20.6v-35.2c0-1.6,0.6-3,1.7-4.2
		c1.2-1.2,2.5-1.7,4.1-1.7h0.2c1.6,0,3,0.6,4.1,1.7c1.2,1.2,1.7,2.6,1.7,4.2V159.4z"/>
	<path class="st2" d="M316.6,128.6c6.9,6.9,10.3,15.1,10.3,24.8v29.3c0,1.6-0.6,3-1.7,4.1c-1.2,1.2-2.5,1.7-4.1,1.7h-0.2
		c-1.6,0-3-0.6-4.1-1.7c-1.2-1.1-1.7-2.5-1.7-4.1v-3c-6.6,5.9-14.4,8.8-23.2,8.8c-9.7,0-18-3.4-24.8-10.3
		c-6.9-6.9-10.3-15.1-10.3-24.8c0-9.7,3.4-18,10.3-24.8c6.9-6.9,15.1-10.3,24.8-10.3S309.8,121.7,316.6,128.6z M275.3,137
		c-4.5,4.5-6.8,10-6.8,16.4c0,6.4,2.3,11.9,6.8,16.5c4.5,4.5,10,6.8,16.5,6.8s11.9-2.3,16.4-6.8c4.5-4.5,6.8-10,6.8-16.5
		c0-6.4-2.3-11.9-6.8-16.4c-4.5-4.5-10-6.8-16.4-6.8S279.9,132.5,275.3,137z"/>
	<path class="st2" d="M369.9,118.3c1.6,0,3,0.6,4.2,1.7c1.1,1.2,1.7,2.6,1.7,4.2v0.1c0,1.6-0.6,3-1.7,4.1c-1.2,1.2-2.6,1.7-4.2,1.7
		h-3.7c-4,0-7.5,1.4-10.3,4.2c-2.8,2.8-4.2,6.3-4.2,10.3v38c0,1.6-0.6,3-1.7,4.1c-1.2,1.2-2.5,1.7-4.1,1.7h-0.2
		c-1.6,0-3-0.6-4.1-1.7c-1.2-1.1-1.7-2.5-1.7-4.1v-38c0.1-7.3,2.7-13.6,7.7-18.7c5.1-5.1,11.4-7.7,18.7-7.7H369.9z"/>
	<path class="st2" d="M442.8,128.6c6.9,6.9,10.3,15.1,10.3,24.8v29.3c0,1.6-0.6,3-1.7,4.1c-1.2,1.2-2.5,1.7-4.1,1.7H447
		c-1.6,0-3-0.6-4.1-1.7c-1.2-1.1-1.7-2.5-1.7-4.1v-3c-6.6,5.9-14.4,8.8-23.2,8.8c-9.7,0-18-3.4-24.8-10.3
		c-6.9-6.9-10.3-15.1-10.3-24.8c0-9.7,3.4-18,10.3-24.8c6.9-6.9,15.1-10.3,24.8-10.3S435.9,121.7,442.8,128.6z M401.5,137
		c-4.5,4.5-6.8,10-6.8,16.4c0,6.4,2.3,11.9,6.8,16.5c4.5,4.5,10,6.8,16.5,6.8s11.9-2.3,16.4-6.8c4.5-4.5,6.8-10,6.8-16.5
		c0-6.4-2.3-11.9-6.8-16.4c-4.5-4.5-10-6.8-16.4-6.8S406,132.5,401.5,137z"/>
</g>
</svg>
