<svg xmlns="http://www.w3.org/2000/svg" xmlns:xlink="http://www.w3.org/1999/xlink" version="1.1" x="0px" y="0px" viewBox="0 0 100 125" enable-background="new 0 0 100 100" xml:space="preserve"><path d="M63.516,22.32c-1.254,0-2.271,1.017-2.271,2.271v11.634c0,1.254,1.017,2.271,2.271,2.271c1.254,0,2.271-1.017,2.271-2.271  v-9.264c13.079,1.153,23.372,12.169,23.372,25.543c0,14.139-11.503,25.642-25.642,25.642S37.874,66.643,37.874,52.504  c0-8.159,3.94-15.906,10.539-20.725c1.013-0.74,1.234-2.16,0.495-3.173c-0.739-1.013-2.16-1.235-3.173-0.495  c-7.766,5.67-12.403,14.789-12.403,24.393c0,16.643,13.54,30.184,30.184,30.184c16.643,0,30.184-13.54,30.184-30.184  S80.16,22.32,63.516,22.32z"/><path d="M48.308,43.976c-0.631,1.084-0.265,2.474,0.819,3.105l12.678,7.385c0.359,0.21,0.753,0.309,1.141,0.309  c0.782,0,1.543-0.404,1.964-1.128c0.631-1.084,0.265-2.474-0.819-3.105l-12.678-7.385C50.33,42.525,48.939,42.891,48.308,43.976z"/><path fill="#000000" d="M8.167,37.525h21c1.104,0,2-0.896,2-2s-0.896-2-2-2h-21c-1.104,0-2,0.896-2,2S7.062,37.525,8.167,37.525z"/><path fill="#000000" d="M4.167,48.179h21c1.104,0,2-0.896,2-2s-0.896-2-2-2h-21c-1.104,0-2,0.896-2,2S3.062,48.179,4.167,48.179z"/><path fill="#000000" d="M27.167,56.833c0-1.104-0.896-2-2-2h-21c-1.104,0-2,0.896-2,2s0.896,2,2,2h21  C26.271,58.833,27.167,57.938,27.167,56.833z"/><path fill="#000000" d="M31.167,67.487c0-1.104-0.896-2-2-2h-21c-1.104,0-2,0.896-2,2s0.896,2,2,2h21  C30.271,69.487,31.167,68.592,31.167,67.487z"/></svg>