<svg id="Layer_1" data-name="Layer 1" xmlns="http://www.w3.org/2000/svg" viewBox="0 0 404.67 230.58"><defs><style>.cls-1{opacity:0.9;}.cls-2{fill:#778a91;}</style></defs><title>Artboard 2 copy 6</title><g class="cls-1"><path class="cls-2" d="M109.1,70.11a5.06,5.06,0,0,1,5.09,5.08v48.5A30.52,30.52,0,0,1,83.68,154a30.52,30.52,0,0,1-30.51-30.51A30.52,30.52,0,0,1,83.68,93a29.52,29.52,0,0,1,20.17,7.65V75.19a5.06,5.06,0,0,1,5.08-5.08ZM69.38,109.39a20.2,20.2,0,0,0,14.3,34.47,20.22,20.22,0,0,0,20.17-20.17,20.22,20.22,0,0,0-20.17-20.23A19.5,19.5,0,0,0,69.38,109.39Z"/><path class="cls-2" d="M135.7,128.72a15,15,0,1,0,30,0V98.16A5.15,5.15,0,0,1,170.84,93H171a4.77,4.77,0,0,1,3.58,1.51A5,5,0,0,1,176,98.16v30.56a25.32,25.32,0,0,1-43.24,17.88,24.38,24.38,0,0,1-7.43-17.88V98.16a5,5,0,0,1,1.51-3.63A4.89,4.89,0,0,1,130.45,93h.17a4.89,4.89,0,0,1,3.58,1.51,5,5,0,0,1,1.51,3.63Z"/><path class="cls-2" d="M239.28,102a29.4,29.4,0,0,1,8.94,21.57v25.42a4.76,4.76,0,0,1-1.51,3.57,4.89,4.89,0,0,1-3.58,1.51H243a4.88,4.88,0,0,1-3.58-1.51,4.76,4.76,0,0,1-1.51-3.57v-2.57a30.49,30.49,0,0,1-50.67-22.85A30.5,30.5,0,0,1,239.28,102Zm-35.87,7.32a20.2,20.2,0,1,0,28.55,0,20.16,20.16,0,0,0-28.55,0Z"/><path class="cls-2" d="M285.54,93a5,5,0,0,1,3.63,1.51,5.06,5.06,0,0,1,1.45,3.63v.11a4.87,4.87,0,0,1-1.45,3.58,5,5,0,0,1-3.63,1.51h-3.19a12.17,12.17,0,0,0-8.94,3.69,12.46,12.46,0,0,0-3.69,8.94v33a4.76,4.76,0,0,1-1.51,3.57,4.88,4.88,0,0,1-3.58,1.51h-.17a4.89,4.89,0,0,1-3.58-1.51,4.76,4.76,0,0,1-1.51-3.57V116a22.74,22.74,0,0,1,6.71-16.26A22.14,22.14,0,0,1,282.35,93Z"/><path class="cls-2" d="M348.84,102a29.4,29.4,0,0,1,8.94,21.57v25.42a4.76,4.76,0,0,1-1.51,3.57A4.89,4.89,0,0,1,352.7,154h-.17a4.88,4.88,0,0,1-3.58-1.51,4.76,4.76,0,0,1-1.51-3.57v-2.57a30.49,30.49,0,0,1-50.67-22.85A30.5,30.5,0,0,1,348.84,102ZM313,109.28a20.2,20.2,0,1,0,28.55,0,20.16,20.16,0,0,0-28.55,0Z"/></g></svg>