<svg xmlns="http://www.w3.org/2000/svg" xmlns:xlink="http://www.w3.org/1999/xlink" width="534.94" height="259.15" viewBox="0 0 534.94 259.15">
    <defs>
        <style>
            .cls-3{fill:#00abec}.cls-4{fill:#fff}.cls-5{fill:#dd5900}
        </style>
    </defs>
    <path fill="#1a1a1a" d="M134.17 258.77c-2.19-.82-2.8-1.62-2.28-3 .24-.63.7-1.15 1-1.15a12.73 12.73 0 0 1 3.16 1.66 27.1 27.1 0 0 0 3.84 2.12l1.27.46h-1.56c-.86 0-2.12.11-2.8.21a6.5 6.5 0 0 1-2.66-.35zm-5-4.21a2.26 2.26 0 0 0-1.53-.17c-.54.17-1-.08-1.36-.83a3.06 3.06 0 0 0-1.26-1.31c-.87-.3-2.68-3.24-3.69-6a5.2 5.2 0 0 0-2-2.81c-1.45-.82-1.55-1.19-.43-1.55 1.28-.4 1.52-2.66.44-4.17a2.69 2.69 0 0 1-.63-2c.18-.47-.32-1.31-1.54-2.55-1.55-1.57-1.83-2.14-1.9-3.8a5.64 5.64 0 0 0-.58-2.55c-.34-.42-.42-1.91-.23-4.86a26.79 26.79 0 0 0-.47-7.94c-.83-4.09-1.25-11.71-1-18.66a18.66 18.66 0 0 0-.42-4.53c-.69-2.45-3.83-5.54-7.72-7.58-2.79-1.46-3.18-1.84-4.26-4.08a30.4 30.4 0 0 0-2.8-4.52 15.29 15.29 0 0 1-2.15-3.65c-.91-2.83-2.53-5.68-3.64-6.4a4.45 4.45 0 0 1-1.48-2.23c-.38-1.35-.28-1.73.89-3.43 1.27-1.85 1.29-1.93.43-2.15-2.11-.55-1.22-3.37 2.56-8.15 2.52-3.18 3.26-5.6 2.56-8.39-.26-1.07-.5-2.18-.53-2.48s-.21-.54-.42-.54-.16-.39.09-.87c.39-.73.29-.94-.65-1.37-1.37-.62-3.45 0-3.46 1 0 1.25-.55 1.34-2.36.4a9.45 9.45 0 0 0-2.23-.92 7.54 7.54 0 0 1-2.25-1.47c-1-.84-2-1.72-2.32-2a2 2 0 0 1-.54-1.42 2.75 2.75 0 0 0-.85-1.76 6.25 6.25 0 0 1-1.34-2.26c-.36-1.09-.62-1.37-1-1-.71.71-1.77.57-4.32-.56a8.81 8.81 0 0 1-3.28-2.38 7.81 7.81 0 0 0-2.26-2c-1.17-.6-1.46-.6-3.16.05l-1.88.72-5.75-2.79c-3.54-1.71-6.29-3.35-7.14-4.25-1.32-1.4-1.37-1.55-.93-3.28.41-1.58.34-2.07-.54-3.88a19.53 19.53 0 0 0-2.67-3.88c-.92-1-1.57-2-1.44-2.2a8.69 8.69 0 0 0-1.4-3.11 13.79 13.79 0 0 1-2-4.85c-.23-1.71-.51-2.23-1.37-2.63s-1.18-.36-1.7.36c-.74 1-.53 2.08 1.1 5.61a21.5 21.5 0 0 1 1.53 4.74 14.81 14.81 0 0 0 1.18 3.77c1.08 2.12.38 2.09-1.32-.07-1-1.27-1.28-2-1.08-2.76s0-1.26-1-2c-1.59-1.17-1.93-1.93-1.34-3 .34-.63.18-1.33-.68-3s-1.06-2.57-.85-3.85a4.18 4.18 0 0 0-2.34-4.73 2.28 2.28 0 0 1-1.57-2.11c-.15-.87-.43-2.2-.62-3s-.19-1.5 0-1.64.08-.73-.31-1.32a1.82 1.82 0 0 1-.21-2.17 2.07 2.07 0 0 0 .25-1.6c-.14-.24.22-1 .82-1.59a10.84 10.84 0 0 0 1.77-2.81 16.82 16.82 0 0 1 2.56-3.75A19.73 19.73 0 0 0 40 61.12c.79-1.83 1.26-2.4 2-2.4.51 0 .9.23.86.53-.13 1.24.84.85 1.94-.76.65-1 1-1.79.78-1.87a.86.86 0 0 1-.4-.79 7.71 7.71 0 0 0-2-2.58c-1.81-1.76-1.92-2-1.32-2.66a1.11 1.11 0 0 0 .22-1.51c-.57-1 .33-3.31 1.31-3.32.4 0 .52-.14.27-.33-.56-.41-.81-1.33-.73-2.69.12-2.16-.35-3.06-2-3.73a16.28 16.28 0 0 1-2.93-1.7 4.92 4.92 0 0 0-2.11-1 32.84 32.84 0 0 1-4.17-.87c-3-.77-3.55-.8-4.6-.27-2.17 1.12-4.47 1.58-5.41 1.07-.7-.37-1.47-.14-4.14 1.26a27 27 0 0 1-4.8 2 18.62 18.62 0 0 0-3.53 1.35C6.12 42.44 1.6 44 .35 44c-.8 0-.26-.37 1.89-1.22 3.65-1.45 7.4-3.33 7.74-3.89s-.5-.94-1.61-.43a2.16 2.16 0 0 1-2.27-.16l-1.22-.64L6.21 37c1.49-.78 2-1.65 1.62-3s1.5-2.3 5.46-2.9a12 12 0 0 0 4.83-1.59c1.91-1.31 1.58-2.3-.48-1.44a4.24 4.24 0 0 1-3.15 0c-1.76-.48-1.82-.54-1-1.12a9.12 9.12 0 0 1 5.81-1.25 4.49 4.49 0 0 0 3-.44l1.38-.71-.91-1a4.37 4.37 0 0 1-.91-1.22c0-.4 2.6-1.2 3.9-1.2a15.9 15.9 0 0 0 3.95-1.05 47.5 47.5 0 0 1 7.82-1.74c4.49-.62 5.45-.63 8.82-.07 2.08.35 5 .76 6.37.92a44.36 44.36 0 0 1 5.6 1.11A18 18 0 0 0 69 20.29a14 14 0 0 1 4.27-.63 2.5 2.5 0 0 0 1.68-.21 2 2 0 0 1 2.13.18 5.67 5.67 0 0 0 3.35.4 10.14 10.14 0 0 1 4.78.66 17.64 17.64 0 0 0 3.64.91c.94 0 .94 0 .12.61s-.8.63 0 .93a11 11 0 0 0 3.34 0c2.53-.26 2.55-.25 3.26 1.11l.71 1.38.93-1.16a6.61 6.61 0 0 1 3-1.77 5.37 5.37 0 0 1 4.09 0 9.48 9.48 0 0 0 3.89.36 3.52 3.52 0 0 1 3 .59c1.19.84 1.22.84 2.27 0a9.37 9.37 0 0 1 2.67-1.27c2.12-.59 2.84-1.85 1.57-2.74-.9-.63-.86-.68 1.5-1.84 1.77-.87 2.56-1.07 2.91-.72s.34.72 0 1.38c-.61 1.13.14 2.83 1.08 2.47a2.05 2.05 0 0 1 1.25 0c.54.21.53.39-.07 1.31-1.65 2.53 2.06 1.81 4.58-.89a3.71 3.71 0 0 1 4.1-.85c1 .36.87.67-.72 2.41-1.89 2.08-2.86 2.5-5.71 2.5a9.87 9.87 0 0 0-3.76.69 2.25 2.25 0 0 1-2.38.21c-1.54-.7-2.08-.12-1 1.06l.94 1-1.88.54a18.3 18.3 0 0 1-3.82.59c-1.55.06-2 .22-2 .84s-.76 1.07-2.37 1.73c-5.25 2.15-9.69 6-8.08 7a4.14 4.14 0 0 1 1.06 1.52A2.4 2.4 0 0 0 105 42.1a21.39 21.39 0 0 1 3.79 1.51 23.13 23.13 0 0 0 3.88 1.56c2 .43 2 .47 1.07 2.79-.78 2-.8 2.26-.19 3.43.36.7.89 1.27 1.18 1.26 1.42 0 2.74-1.34 3.57-3.5s1.14-2.45 3.39-3.65c3.33-1.78 4.71-3.53 4.35-5.49-.24-1.28-.12-1.58 1-2.36a7.65 7.65 0 0 0 2-2.62c.95-2.11 2.48-2.85 5.07-2.42 2.29.37 5 1.83 5.33 2.86a2.61 2.61 0 0 1-.25 1.69c-.41.76-.33 1.09.46 1.94l1 1 1.56-.81a25 25 0 0 0 3.06-1.93l1.5-1.12.35 1a2.66 2.66 0 0 1 .12 1.55 2.12 2.12 0 0 0 .22 1.44 1.62 1.62 0 0 1 .06 1.54c-.27.49-.09 1.23.6 2.45 1 1.75 1 1.75.12 2.37-1.15.8-.41 1.66.85 1a3.15 3.15 0 0 1 3.58.22c1.3 1.18.22 2.59-3.26 4.23-3.77 1.78-5.45 2.13-10.38 2.17-3.64 0-4.12.15-7.66 1.85a15 15 0 0 0-3.78 2.19c0 .89.66.81 3.17-.38a13.1 13.1 0 0 1 4.29-1.26c1.55 0 1.61.05 1.12 1a6.33 6.33 0 0 1-1.34 1.62c-.72.59-.76.84-.31 1.83.67 1.48 2.44 2.2 4.56 1.84l1.67-.28-1.28.89a8.9 8.9 0 0 1-2.59 1.17 17.66 17.66 0 0 0-3.28 1.27 4.15 4.15 0 0 1-2.5.66c-.68-.42 0-1.05 2.26-2 2-.82 1.66-1.7-.47-1.3a45.16 45.16 0 0 0-6 2.25c-3.83 1.69-4.5 2.13-4.72 3.15-.28 1.25-1.21 1.84-4.5 2.84a8.47 8.47 0 0 0-3 1.71 17.52 17.52 0 0 1-2.61 2.08 4.21 4.21 0 0 0-1.74 2c-.23 1-.29 1-.57.25-.54-1.41-1.36 0-1.4 2.36s-1.3 4.13-4 5.41-6.77 4.43-7.58 5.92c-.71 1.33-.74 1.84-.3 5.24.4 3.17.38 4-.16 5-.4.78-.87 1.15-1.26 1-.93-.36-2.06-4.17-1.74-5.86a2.13 2.13 0 0 0-.8-2.44 2 2 0 0 0-1.91-.74 6 6 0 0 1-2.91-.62c-1.74-.75-2.3-.81-3.54-.4a3.57 3.57 0 0 0-2 1.54c-.4.9-.67 1-1.8.77a12.08 12.08 0 0 1-2.49-.88c-1.58-.81-2.46-.75-4.24.27-.82.47-2.51 1.38-3.75 2a5.52 5.52 0 0 0-2.65 2.26c-.22.61-1 3-1.77 5.27l-1.36 4.17.7 2.69c1.28 4.93 3.06 6.41 6.77 5.62 2.79-.6 4.47-1.82 5.09-3.69a2.44 2.44 0 0 1 2.08-1.93c1.9-.53 2.7-.55 3.43-.09s.39 1-2.31 6.87c-1.86 4-1.72 4.38 1.46 3.92 2.89-.42 5.54-.1 5.85.71a22.57 22.57 0 0 1-.44 4.71c-.64 4.07-.64 4.16.29 5.66a7 7 0 0 0 2.16 2.16c1.07.55 1.41.55 2.75 0 2.14-.9 3.3-.8 4.78.39 1.19.95 1.36 1 2.29.36a6 6 0 0 0 1.68-2c.83-1.66 2.24-2.82 3.42-2.84a3.38 3.38 0 0 0 1.9-1.08c1.14-1.21 3.13-1.6 2.16-.43-.82 1-1.29 4.16-.76 5.14.44.82.47.82 1.27-.17.57-.7.68-1.15.37-1.46-.74-.74-.52-1.36.86-2.38s2.54-.95 3.78.37c.9 1 5.74 2.28 7.13 1.93 2.11-.53 7.81 2.94 10 6 1 1.49 4.28 3 5.71 2.62 2.95-.74 7 2.22 7.94 5.8a5.57 5.57 0 0 0 .94 2.21c.63.4-.31 2-2.37 3.91-1.32 1.25-1.63 1.79-1.26 2.16s1 0 2.44-1.3c2.13-2 2.84-2.16 3.9-1.1.65.65.63.78-.26 1.73a3.3 3.3 0 0 1-1.64 1.05c-.39 0-.23.21.38.45.84.34 1.28.24 2.16-.46 2.27-1.84 2.81-1.93 4.83-.8 1.32.73 1.85 1.29 1.78 1.88-.18 1.65.2 2 1.35 1.27.9-.6 1.52-.63 4.56-.21 3.23.44 3.65.62 5.2 2.17a9.09 9.09 0 0 0 4.06 2.37c2.18.64 2.42.83 2.82 2.3.57 2.13-.1 4.49-1.92 6.74a22 22 0 0 0-2.11 3.13 12.14 12.14 0 0 1-1.83 2.51c-1.05 1-1.11 1.3-.84 3.79.5 4.85-1.87 13.91-4.16 15.85a2.76 2.76 0 0 1-2.57.59c-1-.15-1.69 0-1.88.26a6.62 6.62 0 0 1-2.09 1.28 15.86 15.86 0 0 0-3.25 2c-1.4 1.19-1.44 1.32-1 2.74a6 6 0 0 1-1 5.24 4.16 4.16 0 0 0-.68 2 5 5 0 0 1-1 2.38q-1.28 1.81-2.36 3.74c-1.84 3.25-2.94 3.81-5.61 2.86-2.31-.83-3.54-.93-3.54-.29 0 .24.46.65 1 .91a5.7 5.7 0 0 1 1.95 2.32c.76 1.52.84 2.05.45 2.92-.62 1.34-3 2.47-5.14 2.47-1.93 0-2.41.47-1.74 1.72a2.87 2.87 0 0 1-.66 2.95 3.8 3.8 0 0 1-1.5-.57c-1.82-.94-2.46-.34-1.55 1.43a3.6 3.6 0 0 0 1.58 1.6c.85.27.86.33.17 1.09a1.72 1.72 0 0 0-.46 1.51 3.07 3.07 0 0 1-.86 2.17c-1.09 1.42-1.1 1.52-.41 2.58a4.08 4.08 0 0 0 1.38 1.36c1.3.49 1.51 2.2.52 4.14s-1.14 3.9-.37 4.82-1.66 2.48-2.71 1.89zM97.39 67.66c1.16-2.41 3.3-4.2 5-4.2 1.24 0 1.26.2.12 1.65l-.9 1.13.92.75a1.52 1.52 0 0 0 2 .27 2.67 2.67 0 0 0 1.31-1.32c.2-.62.52-.77 1.28-.58a1.1 1.1 0 0 0 1.43-.49c.88-1.56-1.35-3.57-3-2.69a1.75 1.75 0 0 1-2.39-1.94 2.63 2.63 0 0 0-.56-1.91c-.89-1.18-2.25-1.3-5.22-.48a12.49 12.49 0 0 1-2.7.51c-.42 0-.65.15-.52.38s.1.41-.1.41a4.45 4.45 0 0 0-1.42.84l-1.07.82 1.2.46a2.64 2.64 0 0 0 2.56-.27c1.23-.64 1.46-.64 2.8 0a4.49 4.49 0 0 0 2.47.44c.56-.14 1.13-.06 1.28.18s-.46.55-1.39.71c-2.52.42-3.84 1.47-5.67 4.54-1.53 2.56-1.62 2.87-1 3.55s.77.67 1.59.1a9.32 9.32 0 0 0 2-2.9zm7.84 2.66c1.54-.78 1.69-1 1.15-1.52s-.89-.5-2.65.28c-2.07.91-2.72 2.14-1.14 2.14a8 8 0 0 0 2.64-.9zm7.66-3.26c.89-.63.93-.75.29-1.1-.93-.53-3.7.37-3.7 1.2s2.14.79 3.41-.1zm32.4 186.36a1.82 1.82 0 0 1 .52-.86c.29-.29.36-.52.16-.52s-.6.32-.88.71c-.41.55-.69.6-1.34.22-.47-.27-.58-.48-.26-.49s.44-.2.29-.44c-.28-.46.46-.58 2.59-.44 1.9.13 2.1.41.92 1.34s-2 1.08-2 .48zm360.39-10.83q-1.85-1.17 7.71-5.18a33.1 33.1 0 0 0 6-3.47c2.61-2 2.83-2.06 3.35-1.32.78 1.12.32 1.94-1.6 2.8a8.92 8.92 0 0 0-2.56 1.78 3 3 0 0 1-1.76 1 5.57 5.57 0 0 0-2.48 1.45c-3.05 2.74-6.91 4-8.69 2.91zm-30.2-5.59c-.45-.28-.47-.57-.11-1.26a5.56 5.56 0 0 0 .48-2.24c0-1.21.1-1.32 1-1a10.44 10.44 0 0 0 2.48.4c.83 0 1.66.08 1.85.12.71.13-1.2 2.31-2.92 3.31-2 1.2-2 1.18-2.75.68zm49.87-3.77c-.15-.15.2-.65.79-1.11.88-.69 1-1 .6-1.7-.56-1.05.27-2.16 2.18-3 1.49-.61 1.86-1.86 1.46-4.87-.27-2.07-.24-2.2.43-1.65s.65 1 .47 2a2.77 2.77 0 0 0 .89 2.74c1 1.17 1.27 1.29 2 .88s.85-.37.61.26a4.7 4.7 0 0 0-.28.9 5.28 5.28 0 0 1-1.4.89 23.26 23.26 0 0 0-3.35 2.32c-1.73 1.43-3.52 2.59-4 2.59a.88.88 0 0 1-.44-.27zm-45.64-5.57c-.9-1-1.07-1-1.94-.44-1.12.73-3.21.31-4.88-1-.9-.69-1-.92-.5-1.78a2 2 0 0 0 .05-2 5.31 5.31 0 0 1-.47-1.88c0-1.05-.68-1.1-1.24-.1-.24.42-.55.63-.7.48s.35-1 1.11-1.85c1.88-2.14 1.14-2.72-1.33-1.06a8.78 8.78 0 0 0-2.1 1.74c-.08.24-.59-.5-1.14-1.65a8.09 8.09 0 0 0-2.51-3.08c-1.37-.91-1.84-1-4.47-.72a30.77 30.77 0 0 0-10 2.56 17 17 0 0 1-4.94 1.31 28.49 28.49 0 0 0-5.77 1.36c-2.36.89-3 1-4.23.59-1.6-.53-2.26-1.62-1.23-2a5 5 0 0 0 1.52-2.2c.73-1.7.77-2.23.34-4.44a19.12 19.12 0 0 1 0-6.36 22.59 22.59 0 0 0 .21-4.79 6 6 0 0 1 .47-2.77c.68-1.8.85-1.91 5.48-3.87a29.19 29.19 0 0 1 6-2c1.78 0 4-1.69 5.21-4 .75-1.43 1.27-2 1.72-1.79 1.26.48 1.51.39 1.42-.55a1 1 0 0 1 .71-1.2 5.14 5.14 0 0 0 1.82-1.74 6.93 6.93 0 0 1 2.69-2.17c1.58-.63 1.74-.62 2.59.16 1.58 1.44 2.7 1.86 3.24 1.21.26-.31.35-.69.2-.84-.5-.5 1.76-3.33 2.87-3.61a16.64 16.64 0 0 0 2.71-1.08 3.77 3.77 0 0 1 3.45-.32c3.37.9 3.48 1.05 2.23 2.95-1.61 2.44-1.19 3.39 2.77 6.18 1.83 1.28 3.55 2.26 3.84 2.16a9.1 9.1 0 0 0 2-2.18 7.93 7.93 0 0 0 1.7-4.4c.25-2.52 1.46-6 2.08-6 .2 0 .67 1 1 2.31a8.85 8.85 0 0 0 1.72 3.3c1.35 1.26 2.13 4.8 1.53 6.89-.4 1.39-.33 1.61 1 3a19.92 19.92 0 0 1 2.86 4.55 33.58 33.58 0 0 0 3.05 5.22l1.67 2.21-.48 3.4a15.39 15.39 0 0 1-1.93 6c-1.63 2.88-4.06 5.62-5.34 6a8.37 8.37 0 0 0-2.38 2.4 7.26 7.26 0 0 1-2 2.14 9 9 0 0 0-2.2 2.24c-1.62 2.06-1.92 2.25-3.61 2.28a5.35 5.35 0 0 0-3.37 1.19l-1.51 1.15-1-1.05zm-210.42-9.08a2.42 2.42 0 0 1-.86-2.64 3.71 3.71 0 0 0-.81-3.09 6.46 6.46 0 0 1-1.06-2 11.94 11.94 0 0 0-1.7-2.74 8 8 0 0 1-2-5.15 34.13 34.13 0 0 0-3.64-12.36 19.83 19.83 0 0 1-1.95-4.8c-.33-2.08.51-5.17 2.44-8.92l1.28-2.49-.72-2.17a7.51 7.51 0 0 1-.45-3.25 3.25 3.25 0 0 0-.56-2.46 19.57 19.57 0 0 1-1.5-3.75 8.77 8.77 0 0 0-2.62-4.27c-2.73-2.69-3.09-3.74-2.24-6.66 1.73-5.95-.14-9.41-4.7-8.73-1.77.27-1.84.23-2.09-1-.19-1-.71-1.53-2-2.2-1.71-.86-2.44-.87-4.53 0-.47.2-2.41.87-4.31 1.49-2.86.94-3.71 1.06-5 .7s-2.16-.25-4.57.41-3.4.76-4.74.39c-2.81-.78-7.63-5.13-8.32-7.5-.53-1.83-3.83-6.11-5-6.42-.72-.2-.8-.35-.37-.63s.37-.43-.32-.61c-1.09-.28-1.2-1.18-.14-1.19.64 0 .66-.06.1-.42-.4-.26-.45-.42-.12-.43s.21-.53-.37-1.53c-.83-1.4-.85-1.59-.22-2.29 1.93-2.13 2.36-6.72.89-9.62-.7-1.38-.25-3.29 1.24-5.27a37.77 37.77 0 0 0 2.45-4c1.36-2.58 4.4-6.16 5.23-6.16s3.99-3.3 3.99-4.28a7.15 7.15 0 0 1 3.48-5.8 11.59 11.59 0 0 0 3-2.82c1-1.66 1.17-1.71 2.36-.88a7.89 7.89 0 0 0 2.58.88c1.46.25 2.15.07 4.32-1.09A16.34 16.34 0 0 1 246 80.61c2.81.17 4.08.06 5.44-.48 2-.81 3.74-.33 3.27.89a1.34 1.34 0 0 0 .2 1.21c.31.37.3.91 0 1.74-.4 1-.31 1.35.67 2.38a5.62 5.62 0 0 0 2.48 1.45c3.46.69 4.45 1.14 5.17 2.35a3.07 3.07 0 0 0 2.35 1.56 12.56 12.56 0 0 1 2.85 1c1.16.6 1.31.58 2.28-.34.66-.61.95-1.26.8-1.74a2.43 2.43 0 0 1 .23-1.65c.66-1.24 2.56-1.12 5.52.36 3.22 1.62 9.34 2.77 11.51 2.17a5.2 5.2 0 0 1 2.95 0c3 .91 4.51.2 4.92-2.31.14-.84.37-1.52.51-1.52s.43-1.25.47-4c0-.89.22-1.62.47-1.62s.27-.31-.05-.9c-.53-1-1.6-1-4.18.08a2.25 2.25 0 0 1-2.66-.24c-1.42-.84-2.88-1-3.3-.29-.31.51-2.52.15-3.71-.59a4.56 4.56 0 0 1-1.67-3.31 2.22 2.22 0 0 0-1-1.5c-.82-.59-.87-.75-.32-1.11a2.41 2.41 0 0 1 1.63-.19c.68.16 1.31-.11 2.11-.91a4 4 0 0 1 2.69-1.22 6.53 6.53 0 0 0 2.75-.87c1.42-.94 4.66-.68 7.17.58 3.39 1.69 6.4 1.59 7.61-.25.63-1 .63-1.17 0-2.08a15.85 15.85 0 0 0-3.89-2.85l-3.22-1.83.6-1.17c.34-.64.5-1.28.37-1.41s-.09-.5.11-.81a3.55 3.55 0 0 0 .44-1.13c.1-.65-.6-.47-4 1-2 .88-2.29 1.15-1.85 1.68a2.22 2.22 0 0 0 1.45.66c.71 0 .54.21-.74.89-1.54.81-1.72.82-2.72.16s-1-.82-.57-1.31.35-.68-.29-.92a3.22 3.22 0 0 1-1.27-.92c-1.23-1.64-5.16 2.69-6.3 7-.53 2-.51 2.11.49 2.87l1.05.79-1.92.4a8.4 8.4 0 0 1-3.16.06c-1.26-.35-2.86.17-2.86.92 0 .23-.29.29-.65.16a1.39 1.39 0 0 0-1.27.26c-.52.43-.46.79.41 2.42s1 2 .38 3.18c-.74 1.48-1.42 1.37-2.46-.39-.72-1.23-.72-1.25.24-1.39 1.21-.17 1.29-.94.12-1.13-2.68-.42-4.1-1.83-4.1-4a5 5 0 0 0-3.55-4.22 5.56 5.56 0 0 1-2.44-1.41 5.8 5.8 0 0 0-2.15-1.51 5.94 5.94 0 0 1-2.13-1.47c-.45-.65-.75-.72-1.41-.37a1.53 1.53 0 0 0-.84 1.07c0 1.12 5.5 6.19 8.19 7.54 2.85 1.44 3.3 2 1.32 1.52-1.77-.39-2.25 0-1.65 1.33.43.93.36 1.21-.5 2l-1 1 .23-1.28c.36-2-2.33-5-4.56-5-.82 0-4-3-4.79-4.64s-1.86-2-3.24-1.09c-2.09 1.41-3.66 1.89-5.3 1.62-2.17-.37-3.54.39-3.19 1.77.18.72.08 1-.33 1a4.58 4.58 0 0 0-1.84 1.08 5.59 5.59 0 0 1-1.59 1.08c-.53 0-2 2.73-2 3.69s-1.69 2.76-3.32 3.59a7.19 7.19 0 0 1-2.68.49c-1.31 0-1.85.21-2.21.89-.48.88-.49.88-1.6-.23s-1.63-1.29-3.73-1.62c-1.1-.17-1.28-2.66-.46-6.21a11.69 11.69 0 0 0 .38-3.77c-.4-1.63.88-2.59 3-2.26 4.94.76 7.83.8 8.51.12.93-.93 1.35-4 .78-5.73-.37-1.12-.88-1.58-2.4-2.16-2.24-.86-2.28-1.68-.09-1.7a5.86 5.86 0 0 0 2.67-.78c.63-.41 1.34-.64 1.56-.5.61.37 2.92-1 3.69-2.13a3.33 3.33 0 0 1 1.62-1.27 12.11 12.11 0 0 0 3.11-2.25c1.68-1.57 2.56-2.06 4-2.23 1.79-.22 3.59-1.68 2.74-2.24a4.22 4.22 0 0 1-.67-3.2 4.08 4.08 0 0 1 1.36-1.38l1.11-.73-.29 1.78c-.24 1.54-.18 1.76.48 1.65a6.81 6.81 0 0 0 1.74-.67c.82-.44 1-.42 1.23.14.37 1-.66 2.1-1.37 1.51-.39-.33-.64-.32-.86 0s-.4.34-.66-.08-.45-.47-.57-.35.22.78.76 1.46c.92 1.15 1.09 1.2 2.4.75a2.7 2.7 0 0 1 2.6.12c1.07.56 1.44.53 3.5-.25 1.81-.69 2.52-.78 3.32-.41a2 2 0 0 0 2 0c1.95-1 2.48-1.76 2.24-3.14-.36-2.06.3-2.74 2-2.08 1.17.44 1.52.42 2.05-.11s.51-.77-.41-1.75-.95-1.17-.41-1.54a6.41 6.41 0 0 1 2.92-.18c2.29.24 5.14-.66 4.65-1.46s-3.07-.91-5.3-.41c-2 .44-2.49.4-4-.28-2.35-1.06-2.63-2.3-1-4.55 2.08-2.9 2.46-3.82 1.87-4.53-.88-1.06-1.74-.71-3.74 1.49a12.37 12.37 0 0 1-3.2 2.65 4.5 4.5 0 0 0-1.94 1.8c-.58 1.13-.58 1.37 0 2.28a3.52 3.52 0 0 0 1.54 1.29c1.32.42 1.06 1.21-.83 2.51a6.07 6.07 0 0 0-1.73 2.5 4.83 4.83 0 0 1-2.25 2.69c-1.53.89-1.6.9-2.45.13a4.39 4.39 0 0 1-1.14-2 7.43 7.43 0 0 0-1.44-2.59l-1.18-1.42-1.5.92a6 6 0 0 1-2.36.9 3.51 3.51 0 0 1-3.06-2.85 8.37 8.37 0 0 0-.39-2c-.38-1 1.55-2.78 3.56-3.33s6.1-3.42 6.8-4.77a12.88 12.88 0 0 1 2.27-2.57 7.1 7.1 0 0 0 1.77-2c0-.24.92-.76 2.05-1.16s3-1.13 4.21-1.62a15.75 15.75 0 0 1 5.61-1c4.07-.1 6.73.44 8.93 1.81a3.78 3.78 0 0 0 2.81.76c1.49-.3 9.43 2.17 9.76 3s-1.95 1.68-3.9 1.4c-.9-.13-2.76-.47-4.13-.77-1.85-.39-2.62-.41-3-.05s-.18.63.69 1a4.37 4.37 0 0 1 1.8 1.74c.88 1.69 3.68 3.06 5.12 2.52s1.38-.7-.09-1.49-.73-.9 1-.25c1.36.52 2.9-.12 2.54-1.06-.17-.43.3-.75 1.64-1.09 2.84-.73 3.05-.84 2.81-1.41-.89-2.19-.9-2.12.4-2 .69.08 1.2.38 1.14.67s.31.75.8 1c.75.4 1.34.25 3.4-.83 3-1.58 5.38-2.1 6.25-1.37.49.41 1.3.41 3.65 0a11.62 11.62 0 0 1 3.43-.25.53.53 0 0 0 .71-.19c.34-.55-.6-1.8-1.12-1.48s-2.66-.31-2.22-.75 12.46 2.35 13.18 3.07c.48.48 2-.16 2-.85 0-.23-.86-.84-1.91-1.35-3.24-1.58-3.45-4.1-.4-4.87 1.77-.44 2.54.07 5 3.34 3.18 4.25 3.1 4 2.06 5.49-.77 1.08-.82 1.34-.28 1.54 1 .39 3.17-1 3.48-2.18.36-1.43-.31-2.64-1.9-3.46a3.69 3.69 0 0 1-2.16-2.83c0-.33.47-.42 1.4-.25 1.4.26 2.56-.25 5.73-2.51a6.05 6.05 0 0 1 3.18-.88c2.51-.06 3.32-.48 2.6-1.35-.29-.34-.43-.71-.32-.82.55-.55 7.66-1.54 9.29-1.3a3.42 3.42 0 0 0 3.36-.88c.83-.63 1.52-1.32 1.52-1.53 0-.53-3.78-.48-4.1 0-.46.73-1 .48-.88-.38s-.22-.84-3.37-1.09c-8.58-.66-9.28-.82-8.25-1.85s3.13-.89 5 0a7.54 7.54 0 0 0 2.8.69 2.51 2.51 0 0 1 1.68.43 2.52 2.52 0 0 0 1.68.43c2.16 0 6.32.93 6.06 1.35-.13.21.27.38.89.38a6.51 6.51 0 0 1 2.51.74c1 .55 2.45.75 5.48.76 3.26 0 4.34.18 5.29.82.65.44 1.18.92 1.18 1.07a8.48 8.48 0 0 1-2.22 1.49c-2.93 1.62-2.31 2.33 1.24 1.41 2.29-.6 2.82-.6 4.72 0a5.88 5.88 0 0 0 3.59.22 7.28 7.28 0 0 1 4 .24 7.13 7.13 0 0 0 4.14.21 12.15 12.15 0 0 1 8.17.52l4 2.2c2.19 1.19 2.29 1.21 3.81.53a5.19 5.19 0 0 1 3.85-.26c1.86.35 2.54.31 3.59-.23s1.19-.8.8-1.27c-.76-.91 1.93-1.25 5.24-.66 1.51.27 3.43.54 4.26.6a13.66 13.66 0 0 1 3.6 1.05c1.76.8 3.09 1 8.23 1.12 4.89.13 6.44.33 7.62 1s2.55.8 7.09.85c4.17 0 6 .24 7.27.77 2 .86 2.8.54 1.71-.68-.78-.87-.78-.87 2.24-.57 5 .5 11.11 1.6 13.16 2.4a23.4 23.4 0 0 0 4.52 1.07 16.59 16.59 0 0 1 4.61 1.34c1.68.85 2.23.95 3.32.57 1.48-.52 2.44-.15 4.71 1.82l1.4 1.22-1.06.27a8.25 8.25 0 0 1-4.86-1.21.88.88 0 0 0-.89-.18 5 5 0 0 1-2.25-.41c-2.41-.83-3.48-.52-2.38.69.75.83.74.85-.7.75-2.67-.19-1.94.6 2 2.13 2.14.84 4 1.61 4.09 1.72.41.39-.93.87-1.9.69s-3.7.94-3.7 1.61a3 3 0 0 1-.92 1.26c-.85.79-1 .81-2.16.22a2 2 0 0 0-2.42 0 13.38 13.38 0 0 1-2.48.91 5.55 5.55 0 0 0-1.83.76c-.87.72.67 2.82 2.82 3.86a4.37 4.37 0 0 1 2.28 2 16.73 16.73 0 0 0 1.05 2.28c.57 1 .57 1.16-.05 1.4a.69.69 0 0 0-.47.84.58.58 0 0 0 .08.18 8.67 8.67 0 0 1 .41 1.83 7.42 7.42 0 0 0 .43 1.79c.22.52 0 .8-.65 1s-1.26-.05-2.51-1.42a25.76 25.76 0 0 0-3.18-2.91 22.18 22.18 0 0 1-3.56-3.75c-1.87-2.49-1.91-2.6-1.29-3.81a6.19 6.19 0 0 0 .66-2.23 5.34 5.34 0 0 1 .61-2.06c.62-1.13.38-2-1-3.56a1.15 1.15 0 0 0-2 1c.36 1.14-.75 1.51-2 .67a9.18 9.18 0 0 0-2.83-1c-1.73-.27-1.86-.22-2.3 1a5.15 5.15 0 0 0-.24 2.4c.19 1 .06 1.19-1 1.42a5.47 5.47 0 0 1-2.85-.44 4.48 4.48 0 0 0-2.79-.37 27.85 27.85 0 0 1-4.65.36c-3.07 0-3.66.16-4.6 1a7.35 7.35 0 0 0-1.57 3 12.69 12.69 0 0 1-1.12 3c-.59.92-.54 1 1.15 1.87a7.11 7.11 0 0 0 5.36.66c1.17-.4 4.74 2.38 5.85 4.57a5.84 5.84 0 0 0 1.74 2.28c1.76.94 2.12 7.13.65 11.18-1 2.8-2.17 3.71-3.84 3.08a10.67 10.67 0 0 0-1.31-.45 8.88 8.88 0 0 0-1.07 1.77c-.67 1.28-.8 1.93-.47 2.32.63.76.17 1.74-1.09 2.32-.58.26-1.06.67-1.06.9a13 13 0 0 0 3 2.48c2.1 1.44 3.23 2.55 3.74 3.69A4.36 4.36 0 0 1 456 83a22.19 22.19 0 0 1-2 1.06l-1.79.9-1.07-2.46c-1.2-2.76-2.23-3.87-4.05-4.36-.91-.25-1.23-.6-1.23-1.35s-.45-1.28-1.4-1.84c-1.39-.81-1.41-.81-2.89.1s-1.49.91-1.94.07a4.07 4.07 0 0 1-.46-1.52 1.49 1.49 0 0 0-.81-1.09c-.66-.35-1.07-.14-2.28 1.17a14.27 14.27 0 0 1-2.32 2.08c-.72.41-.76.58-.26 1.17a11.06 11.06 0 0 0 2.44 1.74c1.62.91 1.93 1 2.48.41s.95-.54 2.52-.11l1.9.51-1.06.71c-1.95 1.31-2.57 2-2.85 3.17-.23 1-.09 1.27.78 1.66a5.75 5.75 0 0 1 2 2.35 7.12 7.12 0 0 0 2.17 2.63c1.58.94 2 1.93 1.12 2.44s-.44 1.18.68 1.18c1.35 0 1.35.81.05 5.43-1.57 5.61-3 7.48-6.7 8.84a18.79 18.79 0 0 1-4 1 5.25 5.25 0 0 0-4.06 2.22l-.89 1.13-.41-1.09c-.54-1.43-1.78-1.78-3.56-1a5.18 5.18 0 0 0-3.14 3.21c-.39 1.28 1 3.52 3.26 5.32a15.55 15.55 0 0 1 4.46 7.89c.42 2.35-.33 3.9-2.37 4.81a4 4 0 0 0-1.93 1.53c-.32 1-2.23 2.26-2.58 1.69a1.79 1.79 0 0 1 0-1.23 2.64 2.64 0 0 0 0-1.5c-.22-.55-.45-.6-1.13-.24s-1 .29-1.56-.54c-1.41-2-5.49-5.33-6.62-5.33-.4 0-.55.48-.49 1.51a15.56 15.56 0 0 1-.37 3.6c-.43 1.88-.38 2.22.42 3.3a8.32 8.32 0 0 1 1.17 2.3 9.78 9.78 0 0 0 2.83 3.14c2.37 1.9 2.63 2.28 3.63 5.45a38.42 38.42 0 0 1 1.07 3.81c0 .74-.9.44-2.78-.91s-3.19-3.61-4.22-7.51a5.25 5.25 0 0 0-2.35-3.46c-1.71-1.26-1.76-1.37-1.63-3.46.08-1.19.28-2.87.44-3.74.22-1.22 0-2.1-.82-3.88a26.72 26.72 0 0 1-1.61-4.32c-.61-2.49-1.46-2.9-3-1.45a5.33 5.33 0 0 1-1.41 1.09c-.69 0-1.63-1.46-1.4-2.17.41-1.3-2.12-5.81-3.6-6.43a4.23 4.23 0 0 1-2.05-2.24c-.86-1.91-1.82-2.64-2.79-2.11a18.58 18.58 0 0 1-3.11.85c-2.5.51-3.39 1.27-3 2.58.13.48-.31.94-1.36 1.44a4.87 4.87 0 0 0-2 1.81 2.69 2.69 0 0 1-1.32 1.34 3.81 3.81 0 0 0-1.56 1.47 12.85 12.85 0 0 1-2.67 2.69c-1.45 1.12-1.91 1.74-1.83 2.53.42 4.6-.23 8.45-1.82 10.74s-1.65 2.29-3 1.7a2.45 2.45 0 0 1-1.34-1.95 32.49 32.49 0 0 0-1.93-5c-5.52-11.85-6.34-14.11-5.87-16.25.32-1.45-.44-3.63-1.18-3.38a.9.9 0 0 0-.55.79c0 2-2.25 2.27-4 .54l-1.14-1.14 1-.37c1.11-.41 1-1.51-.12-1.31a3.49 3.49 0 0 1-2-1 5.49 5.49 0 0 0-1.68-1.1c-.21 0-.5-.39-.65-.87-.4-1.26-2.69-2.35-3.83-1.83s-10.4.37-12-.12a7 7 0 0 1-2.32-1.81c-1.29-1.47-1.31-1.47-3.24-1s-2.09.44-4.56-.8c-2.12-1.08-2.76-1.66-3.42-3.11-.84-1.86-2.7-3.21-3.83-2.77a2.29 2.29 0 0 0-.93 1.51c-.22 1 0 1.64 1.07 3.08a13.25 13.25 0 0 1 1.78 3.47c.52 1.95 1.56 2.53 2.42 1.36.52-.71.66-.74 1-.18a1.56 1.56 0 0 1 .27 1.07c-.24.75 2.25 2 3.41 1.69a8.27 8.27 0 0 0 2.79-2.23c1.49-1.69 2-1.8 1.75-.38a2.89 2.89 0 0 0 1.83 2.72c1.93 1 4.61 3.21 4.61 3.81a3.61 3.61 0 0 1-1.12 1.55 11.62 11.62 0 0 0-2 2.7c-1.14 2.22-4.43 5.46-5.55 5.46a5.73 5.73 0 0 0-4 2.26 6.36 6.36 0 0 1-2.12 1.73 67.25 67.25 0 0 1-10.43 4.38c-1.48.28-1.6.21-2.39-1.34a15.37 15.37 0 0 1-1.15-4 6.59 6.59 0 0 0-1.56-3.79 5.87 5.87 0 0 1-1.24-1.83 8.42 8.42 0 0 0-1.73-2.2 9.51 9.51 0 0 1-2.43-4.21 12.93 12.93 0 0 0-1.69-3.58c-4-4.92-5.13-6.65-5.72-8.46-.78-2.4-1.44-2.79-1.75-1l-.22 1.25-1.46-1.85c-2.25-2.84-2.53-1.55-.42 1.92 1 1.64 2.6 4.54 3.54 6.44a43.36 43.36 0 0 0 2.73 4.7 5.21 5.21 0 0 1 1 2.73c0 1.63.49 2.64 2.39 5a9.35 9.35 0 0 1 1.68 3.08c.21 1 1 2 2.83 3.39 2.72 2.18 4.49 4.46 4.92 6.36a3.1 3.1 0 0 0 1.58 1.86c1.2.62 1.63.6 5.43-.22a32.9 32.9 0 0 0 5.34-1.53l1.22-.62.29 1.7c.26 1.56 0 2.3-3.1 8.2-3.3 6.33-3.45 6.54-6.74 9.13a31.14 31.14 0 0 0-4.3 4c-.51.73-2.16 2.69-3.66 4.35-4.39 4.87-5 9.14-2.08 14.88a5.35 5.35 0 0 1 .86 3.25 9.67 9.67 0 0 0 .2 3.26c.41 1.9.37 2.41-.34 3.8-1 2-1.83 2.72-4.69 4.15a6 6 0 0 0-2.26 1.54 11.75 11.75 0 0 1-1.94 2.6 11.17 11.17 0 0 0-1.95 2.62 10.09 10.09 0 0 0 .89 2.18c1.47 2.87.49 5-3 6.41-1.48.62-2 1.87-1.6 4.13.19 1.18.07 1.58-.6 1.94a7 7 0 0 0-1.86 2c-1.77 2.77-6.86 7.69-9.17 8.86-1.93 1-2.42 1-3.84.66a7.68 7.68 0 0 0-4.35.24c-3.39.85-3 .89-4.34-.43zm56.84-137.66c1.11-.57 1.27-.89 1.27-2.53a3.38 3.38 0 0 0-.67-2.44 7.12 7.12 0 0 1-1.34-1.84c-.6-1.17-.6-1.26 0-1 .83.32 2-.06 2-.66a5.13 5.13 0 0 0-.89-1.68c-.74-1-1-1.17-1.73-.8s-.83.3-.83 0-.77-.83-1.71-1.31c-2.09-1.06-2.83-2.24-2.18-3.45.5-.92 2.25-1.56 3-1.1 1 .62 1.31-.3.48-1.47-2-2.84-4.84-2.65-8.34.55-2.26 2.07-2.45 2.63-1.18 3.31a1.57 1.57 0 0 1 .87 1.1 7.08 7.08 0 0 0 1.7 2.49c2.16 2.35 2.56 3.42 2.29 6.19l-.21 2.24 3 1.52c1.63.83 3 1.53 3.1 1.54a8.39 8.39 0 0 0 1.4-.64zm-11.89 120.54c-1.22-.69-1.39-1.05-1.71-3.6-.25-2-.15-2.48 1.07-4.46s1.33-2.39 1-4.58c-.39-3.15.28-4.81 2.11-5.21s5.47-3.68 6.36-5.62l.69-1.48.47 1.05c1.2 2.62 1.08 3.78-1 9.54-1.12 3.08-2.31 6.77-2.66 8.19-1.11 4.56-1.74 5.66-3.56 6.2s-1.74.58-2.82 0zM526.82 194c-1.38-1.5-2.21-2.8-2.21-3.45 0-1.45.24-1.32 1.48.8a17.54 17.54 0 0 0 2.39 3.1 5.37 5.37 0 0 1 1.31 1.61c0 .83-.92.19-3-2.06zm-22.7-20.63c-2.73-.86-4-1.66-5.05-3.26-1.23-1.83-3.47-3.21-4.62-2.84a4.39 4.39 0 0 0-1.74 1.78c-.83 1.41-1 1.49-2.51 1.22a6.43 6.43 0 0 1-2.77-1.36c-.8-.74-1.41-1-2-.78a2.32 2.32 0 0 1-1.58-.1c-.59-.34-.54-.49.41-1.11s1.1-.73.37-2.28c-.6-1.24-1.41-1.89-4.09-3.23a16.15 16.15 0 0 0-4.61-1.68c-1.61 0-2.27-1.48-1.06-2.36.72-.53.61-.66-1.26-1.57s-2-1-1.07-1.54a5.18 5.18 0 0 1 1.92-.56 2.91 2.91 0 0 1 2.29 2.62 4.27 4.27 0 0 0 .94 1.89c.92 1.17.94 1.17 1.61.33a12.16 12.16 0 0 1 2.68-2l2-1.14 2.76 1.25c1.51.68 3.67 1.57 4.78 2a31.07 31.07 0 0 1 5 2.65c3.07 2 4.41 3.73 3.64 4.65-.62.75 1.83 4.18 4.37 6.11 2.79 2.11 2.74 2.31-.32 1.34zm18.78 0c-.34-.41-.38-.65-.09-.65.52 0 1.13.81.83 1.11-.11.11-.44-.09-.74-.46zm-72.51-1.75c-.63-.35-.81-.6-.43-.61.77 0 2 .71 1.71 1-.11.11-.69-.07-1.28-.39zm7.3-.57a4.38 4.38 0 0 1 4.91-1.89c1.29.42 1.31.45.28.49a8.84 8.84 0 0 0-3.14 1.34c-2.56 1.62-3.18 1.64-2.05.06zm62.61.59c-.58-.71-.44-.79.61-.39.38.15.68.44.68.65 0 .52-.7.37-1.29-.34zm2-.38a4.73 4.73 0 0 1-.27-1.49c0-.48.17-.37.45.32a3 3 0 0 1 .26 1.49c-.08.24-.28.1-.44-.32zm-77-1.41c-.3-.13-.44-.41-.3-.62.33-.54 3.09-.51 3.43 0 .14.24 0 .44-.3.44a9.82 9.82 0 0 0-1.43.19 2.77 2.77 0 0 1-1.4 0zm6.4-.32c-.78-.95.12-1.24 2.16-.69s2 .64-.09 1c-1.1.2-1.7.1-2.07-.33zm64.8-.27c-.3-.47-.36-.86-.12-.86s.62.39.88.86.31.87.12.87-.59-.39-.88-.87zm2.7-.43c-1.16-1.28-.54-1.48.65-.21.56.59.81 1.07.57 1.07a2.58 2.58 0 0 1-1.22-.86zm-80.91-.08a33.4 33.4 0 0 1-4.84-1 6.45 6.45 0 0 0-2.92-.38c-1 .31-5.19-.92-5.19-1.53 0-1.38 3.87-1.48 5.93-.16.76.5 1.37.53 3 .16 1.8-.4 2.17-.35 3.23.43a4.8 4.8 0 0 0 1.63.89c.85 0 3.44 1.44 3.22 1.79a.79.79 0 0 1-.73.3c-.29 0-1.78-.23-3.32-.45zm77.46-2.08c-.43-.47-.59-.86-.35-.86a2.62 2.62 0 0 1 1.21.86c.43.48.59.87.35.87a2.64 2.64 0 0 1-1.21-.87zm-2.72-.54a5.29 5.29 0 0 1-.73-1.83c-.24-1.15-.22-1.2.24-.43a12.57 12.57 0 0 0 1.14 1.57c.36.42.44.82.2 1a.73.73 0 0 1-.85-.28zm-9.14-1.37l-1.08-.6 1.67-.31a7.91 7.91 0 0 0 3.12-1.59c.88-.77 1.46-1.05 1.45-.7 0 .88-.54 1.55-2.15 2.74s-1.61 1.23-3 .46zM423 163c-1.59-.91-4.45-4.4-5.38-6.57a23.84 23.84 0 0 0-2.56-4.29 31.82 31.82 0 0 1-2.3-3.45 15.61 15.61 0 0 0-2.46-3c-2.09-2-3.37-4.1-2.5-4.09 1.14 0 4.05 1.64 5.3 3 3.45 3.6 4.16 4.24 5.79 5.24s2.31 2 2.39 3.24a4.35 4.35 0 0 0 1 1.51l2.23 2.48a7.29 7.29 0 0 1 1.54 2.67c.5 2.29-1.34 4.31-3 3.34zm27.21-.29a1.88 1.88 0 0 1 0-1.28 2.58 2.58 0 0 0-.4-1.85c-.6-.92-.59-1.11.06-2.05a9.78 9.78 0 0 0 1.05-3.39 5.65 5.65 0 0 1 1.33-3.37c.94-1 1.18-1 3.3-.59 1.81.35 2.53.31 3.52-.21 1.66-.85 1.78-.81 1.23.39a2.41 2.41 0 0 1-3.08 1.49 2.75 2.75 0 0 1-.49-.23c-2.64-1.38-6.13.67-4.29 2.51.68.68 1.06.74 2.31.38 2.15-.62 3-.5 1.66.22-1.51.82-1.8 1.73-1 3.24a6.3 6.3 0 0 1 .65 2.36c0 1-.11 1.06-.87.65a4.68 4.68 0 0 1-1.52-2c-.65-1.56-.66-1.57-1.5-.73s-.79 1.06-.38 2.52.33 1.75-.12 2c-.76.49-1.11.47-1.44 0zm59.21-2.31a6.54 6.54 0 0 0-2.07-1.81c-.73-.38-1.24-.79-1.12-.91.67-.67 4.42 2.38 4.1 3.34-.1.29-.49 0-.91-.62zm-67.81-1.4a3.14 3.14 0 0 0-1.95-.38c-1.07.34-5.34-.53-5.76-1.17a37 37 0 0 1-1.85-5.93 2.51 2.51 0 0 1 .34-1.89c.49-.67.75-.72 1.53-.31s1 .37 1.45-.62a5.23 5.23 0 0 1 2.1-1.94 4.76 4.76 0 0 0 2.11-2.1 3.09 3.09 0 0 1 2-1.79 6.44 6.44 0 0 0 2.6-2c.62-.81 1.35-1.47 1.64-1.47a5.27 5.27 0 0 1 1.89 1.42l1.38 1.43-1.09 1.49c-1.26 1.7-1.19 3.15.23 5.15l.87 1.21-1.08.71c-.59.38-1.07.94-1.07 1.23 0 1-2.76 6.69-3.46 7.12-.48.3-1 .24-1.87-.19zm25.07 0c-.89-.23-1-1-.16-1a15.5 15.5 0 0 1 2 .29c1.21.24 1.31.34.59.62a3.18 3.18 0 0 1-2.46.09zm-1.51-6.67c-.35-.35-.37-.75-.07-1.31a1.49 1.49 0 0 0 .18-1.22c-.39-.63.58-2.15 1.37-2.15s.64.07 0 .8a1.54 1.54 0 0 0-.3 1.94c.69 1.8-.06 3-1.16 1.94zm-6.58-13.09c-.82-1.92-.93-2-2.2-1.73s-1.3.25-.83-.64c.39-.73.76-.87 1.68-.67a2.3 2.3 0 0 0 2.35-.82 3.56 3.56 0 0 0 1.17-1.85c0-1.08 1.61 2.57 2 4.52.28 1.48.24 1.56-.43 1-1-.83-2 0-1.15 1 .33.39.37.66.11.66a4 4 0 0 0-1.13.26c-.5.19-.91-.27-1.55-1.76zm-78.68.76a11.17 11.17 0 0 1-.41-5.23c.37-1 .4-1 1.5.65 1.32 2 1.74 3.19 1.31 3.86s-2.13 1.16-2.4.72zm66.16-4.77a12.9 12.9 0 0 1 1.93-2.48c1.55-1.73 1.92-2 1.94-1.26a5.29 5.29 0 0 1-1.44 2.48c-1.36 1.49-2.43 2-2.43 1.26zm9.35-1.15a1.91 1.91 0 0 1 .07-1.39c.31-.54.43-.54.86 0s.36.79-.07 1.38-.59.74-.86 0zM125 132.36c.26-.32.35-.71.19-.87s.12-.28.61-.28c.68 0 .84.2.67.86a1.14 1.14 0 0 1-1.09.86c-.67 0-.76-.12-.38-.57zm333.36-.12a11.37 11.37 0 0 0-.47-1.14c-.1-.18 0-.32.23-.32.43 0 1 1.77.72 2.09-.15.13-.36-.18-.52-.63zm-4.38-1.12a.94.94 0 0 1 .89-1.57c.57.12.59.3.14 1.15s-.63.89-1 .42zm5.11-1.49c-.5-.63-.83-1.21-.74-1.3.35-.35 1.56.42 2.21 1.4.95 1.52-.31 1.43-1.51-.1zM452 128a2.34 2.34 0 0 1-.7-1.19c0-.28.43-.07.95.45s.84 1.06.7 1.19-.56-.06-.95-.45zm-338.73-.06a1.15 1.15 0 0 1-.29-.73c0-.27.2-.25.51.06s.41.61.29.73a.36.36 0 0 1-.51-.06zm-2.45-.58c0-.23.09-.43.19-.43s.31.2.46.43.06.44-.19.44a.45.45 0 0 1-.46-.44zm20.28-.86c0-.24.09-.43.19-.43s.31.19.46.43.06.43-.19.43a.45.45 0 0 1-.46-.43zm325.24-.06a2.85 2.85 0 0 0-1.82-.19c-.84.21-1.41-.12-3-1.73-2.21-2.28-2.64-3.24-2-4.45a5.5 5.5 0 0 0 .46-2.15c0-2.34 1.57-2.24 2.72.17a2.73 2.73 0 0 1 0 3c-.64 1.55-.63 1.62.52 2.82.83.86 1.45 1.16 2.11 1a1.5 1.5 0 0 1 1.48.43c.78.94.44 1.6-.54 1.06zm-327.83-2.72c0-.1.2-.31.44-.46s.43-.06.43.2a.45.45 0 0 1-.43.45c-.24 0-.44-.08-.44-.19zm-1.29-3.21a1 1 0 0 1 .43-.7c.24-.14.43-.07.43.17a1 1 0 0 1-.43.7c-.24.14-.43.07-.43-.17zm-3.67-1.77c-.15-.25 0-.32.41-.17.75.29.89.6.26.6a1 1 0 0 1-.67-.43zm1.73-.87c-.15-.24-.06-.43.19-.43a.45.45 0 0 1 .46.43c0 .24-.09.43-.2.43s-.31-.19-.45-.43zm1.94 0c0-.24.09-.43.19-.43s.31.19.46.43.06.43-.19.43a.44.44 0 0 1-.46-.43zm-29.72-1.19a.83.83 0 0 1-.54-.61c0-.62 1.91-.46 2.83.24s.78.63-.45.61a7.15 7.15 0 0 1-1.84-.24zm10.92-.24a3.16 3.16 0 0 0-1.9-.13 4.65 4.65 0 0 1-2.25-.16c-.93-.37-.85-.42.71-.38 2.3 0 2.91-.32 2.33-1.42-.42-.78-.3-.83 1.76-.83s4.87.91 5.35 1.7c.33.52-5.23 1.65-6 1.22zm8.28.27c-.51-.51.12-1 1.25-1 .68 0 1 .21.91.54a1.7 1.7 0 0 1-2.16.46zm312.2-.71c-1.14-1.14 0-2.5 2.08-2.5.93 0 .93 0 .13 1.36-.92 1.59-1.47 1.87-2.21 1.14zm-308.63-.09c0-.09.29-.28.64-.41s.65-.06.65.17-.29.41-.65.41-.64-.07-.64-.17zm-18.66-3.09a5.77 5.77 0 0 0-2-.27c-1.36 0-1.68-.15-1.35-.55s-.14-.9-1.72-1.93c-3.12-2-4.85-2.4-6.94-1.57s-2.11.81-2.11.31c0-.9 3.43-1.89 5.91-1.7s3.69.68 8.33 3.16c3.82 2 3.82 2 2.59 2.4-1.4.4-2.39.45-2.69.15zm3.12-3.64c.84-.54 1.29-.54 1.29 0 0 .24-.43.43-1 .42-.78 0-.84-.08-.32-.42zm343.67-.77a4.2 4.2 0 0 1-1-1.3c-.44-.83-.39-1.22.26-2.34 1-1.72 1.69-1.94 2-.64s-.65 4.7-1.28 4.28zm-340.84-.57c.29-.47 1.92-.52 1.92-.06 0 .18-.49.35-1.08.38s-1-.11-.84-.32zM99 103.7c-.69-.79-.59-1.84.18-1.84.24 0 .34.38.22.85s0 .92.28 1 .37.3.23.45-.55-.06-.91-.48zm2.51-3.39c-.16-.4-.19-.82-.07-.94s.34.11.5.51.18.82.06.94-.34-.11-.49-.51zm-2.71-.39a.76.76 0 0 1 .82-.65c.73 0 .75.08.18.65a2.71 2.71 0 0 1-.82.65c-.1 0-.18-.29-.18-.65zm361.92-9.46a4.65 4.65 0 0 0-1.05-1.86c-1.37-1.62-.88-2.71.74-1.65a3.13 3.13 0 0 1 1.34 3.44c-.33.85-1 .9-1 .07zm2.4-3.13c-.28-.73.38-1.41 1.37-1.43.69 0 .7 1 0 1.64s-1.06.65-1.39-.21zm3.94-1.57c-.83-1.28-2-1.46-4.73-.7a3.14 3.14 0 0 1-2.37 0c-.41-.24-.53-.45-.25-.45a5.12 5.12 0 0 0 1.81-1.11 2.56 2.56 0 0 1 2.33-.84c.77.2 1.6-.17 3.36-1.49 3.41-2.57 3.72-3.38 2.33-6.12s-1-3.48 1-2.31c1.44.85 2.8 3.28 2.4 4.31a5.4 5.4 0 0 0 .47 2.57c.57 1.48.62 2.11.24 2.81-.55 1-2.09 1.73-3.85 1.73-1 0-1.27.25-1.59 1.37l-.4 1.38-.76-1.16zm-174.78-1.47c-.52-.52-.25-1 .57-1a1.47 1.47 0 0 0 1.11-.43c.4-.65 1.08-.52.82.15s-2.13 1.63-2.5 1.26zm-14.72-.75l-1.29-.54h1.72c2.15 0 3.74.36 3.42.87s-2.36.43-3.85-.25zm-17.43-4.31c-1.73-.88-1.81-1-.91-1.23 1.08-.28 3.47.07 3.42.51a5.9 5.9 0 0 1-.32 1c-.27.63-.48.6-2.19-.28zm-8.65-4.66c-.38-1.08-.35-1.49.14-2 .88-.88 1.56-.26 1.56 1.41 0 2-1.08 2.33-1.7.56zm-10.12.35c.3-.79 1.62-.93 1.35-.14a1.22 1.22 0 0 1-.89.68c-.5.1-.64-.06-.46-.54zM466.84 70c-.79-1.11-.81-1.32-.23-2.15s.57-1.06 0-2.2c-1-1.88-.84-2 .85-.71a13.47 13.47 0 0 0 3.65 1.79q3.65 1.08 1.75 1.69c-.48.15-.87.56-.87.9s-.3.55-1.19.32c-2.28-.58-2.92-.44-2.78.61.18 1.29-.11 1.23-1.16-.25zm-214.67.51a1 1 0 0 1 0-1.37 1 1 0 0 1 .35-.23c.47-.18.65 0 .65.82 0 1-.42 1.36-1 .78zm211.93-9.1a22 22 0 0 1-2-3.35 33.76 33.76 0 0 0-4.1-5.81c-1.77-2-2.68-3.3-2.34-3.41s.95.35 1.44 1a22.58 22.58 0 0 0 5 4.65c1.91 1.41 2.86 2.71 1.62 2.24-1.42-.55-1.07.75.78 2.82a20.44 20.44 0 0 1 1.95 2.4c0 .53-1.67.12-2.26-.55zm-318-2.15l-1.61-.17 3-3a17.69 17.69 0 0 1 3.51-3c.28 0 .19.32-.2.76-.9 1-.29 2.1 1.35 2.46a2.59 2.59 0 0 1 1.71 1.32c.44 1 .37 1.07-1.13 1.48s-3.44.48-6.66.14zm-105.19-3.1c-1.5-1.39-1.66-2-.67-2.36s2.52.77 3.15 2.13.64 1.49-.32 1.49a4.56 4.56 0 0 1-2.16-1.26zM231 54c.48-.23 1.41-.62 2.08-.86 1.47-.53 1.23-1.1-.63-1.47-1.28-.25-1.32-.32-.59-.85.43-.32.66-.78.51-1s.28-.66 1-.91 1.29-.64 1.29-.88c0-1-.9-2.67-1.4-2.61-1.15.15-1.68 0-1.5-.57a1.92 1.92 0 0 0-.19-1.29c-.56-1.08.72-3.32 1.91-3.34.17 0 .27.23.21.52s.35.6.91.69l1 .15-1 1-1 1 1.09.41c1.18.45 2.3 1.9 3.45 4.44.55 1.21.92 1.53 1.56 1.36 1.32-.34 1.47.55.24 1.36-.84.55-1 .86-.63 1.23s-.36.61-2.87 1c-1.85.27-4 .61-4.87.77-1.15.21-1.31.18-.65-.15zm-7.27-2.38a3 3 0 0 1 .37-1.94c.41-.79.48-1.35.21-1.51-.74-.47-.46-1.06.63-1.33a3.53 3.53 0 0 0 1.57-.87c.57-.7 3.23-.82 3.63-.18.15.24 0 .87-.41 1.39a4.41 4.41 0 0 0-.67 2.11c0 1-.29 1.25-1.83 1.79-1 .35-2.15.77-2.54.93a.65.65 0 0 1-.89-.21.67.67 0 0 1-.07-.18zm7.92-4.29c0-.1.2-.31.43-.46s.43-.06.43.19a.44.44 0 0 1-.43.46c-.23 0-.43-.09-.43-.19zM40.09 45.22c-.43-.51-.4-.75.13-1.19.88-.72 1.31-.23.8.91-.35.79-.48.83-.93.28zM39.41 42c-.14-.24 0-.67.38-1 .7-.58.85-.12.26.81-.23.36-.48.43-.64.19zm-27.89-.3c0-.3 1.31-.83 3.16-1.28.71-.17 1.12-.13 1 .09a2.77 2.77 0 0 1-1.44.64 14.8 14.8 0 0 0-2 .53c-.41.16-.75.17-.75 0zM268 36.85c-.8-.32-.66-.82.25-.89.44 0 .79.22.79.56 0 .64-.15.69-1 .33zm-94.83-2.21c-2.73-1.49-4-3.78-3.25-5.69a2.2 2.2 0 0 0 .05-2.11c-.72-1.33.21-2.9 2.6-4.37a8.93 8.93 0 0 0 2.43-2.11c.69-1.29.08-3.51-1.13-4.05-.61-.28-.94-.72-.8-1.07.3-.8-1.13-3.53-2.56-4.86-1.06-1-1.51-1.08-5.12-1.11-4.91 0-5.82-.3-5.74-1.71 0-.59.16-1.07.29-1.07s1.87-.2 3.88-.45a27.33 27.33 0 0 0 7.73-2.18C176 2 176.36 1.93 186.94 2.18a52 52 0 0 0 10.35-.83 32.78 32.78 0 0 1 7.84-.68 12.8 12.8 0 0 0 4.05-.22c2.36-.64 8.47.13 10.88 1.35 1.42.73 2.17.82 4.57.58 2.59-.25 2.79-.22 2 .35a9.39 9.39 0 0 1-3.24 1c-2.83.37-5.43 2.39-4.74 3.68.29.56.08 1-.88 2a6.92 6.92 0 0 0-1.5 1.94c-.3.94-4.12 2.71-6 2.77-2.1.07-2.32.52-.69 1.42a23.39 23.39 0 0 1 2.49 1.6l1.09.83-1 .36c-.76.28-1.37.1-2.63-.77-1.72-1.19-3.56-1.19-2.58 0 .39.46.3.64-.42.83-1.61.42-.47 1.25 1.3.95 1.12-.19 1.76-.09 2.11.33s-.13.74-3.27 1.4a41.13 41.13 0 0 1-6.15.83c-2.42 0-4.17.73-6.74 2.69a12.78 12.78 0 0 1-4.71 1.67c-4.35.83-5.83 1.79-8.45 5.53-2.11 3-3.38 4.12-4.7 4.13a10.26 10.26 0 0 1-2.8-1.17zm-30.6-2.88A9.29 9.29 0 0 1 140 29.4c-.9-1.43-1.73-1.61-4.17-.91a3.38 3.38 0 0 1-2.11.05c-1.28-.71 1-1.42 3.6-1.1 1.95.25 2.39.18 2.62-.41a3.23 3.23 0 0 1 3.72-1.52 2.71 2.71 0 0 0 2.28 0c1.24-.48 1.25-.52.45-1.11a3.28 3.28 0 0 0-1.17-.61 6.12 6.12 0 0 1-1.46-1.93 9.46 9.46 0 0 0-2.58-2.86c-1.36-.84-1.54-.85-2.76-.22-1.06.55-1.68.59-3.36.21a10.69 10.69 0 0 0-3.52-.19c-1.39.26-3.94-.42-3.94-1.06 0-1.16 3.66-3.76 5.83-4.14l1.72-.31-1.23 1.31c-1.7 1.82-1.06 2.65.79 1a7.46 7.46 0 0 1 3-1.55c1.33-.25 1.9-.09 3.57 1 2.23 1.48 2.4 1.52 3.66.84.75-.4 1-.29 1.85.74a7.13 7.13 0 0 0 3.08 1.88c2 .62 2.1.76 2.1 2.12a2.37 2.37 0 0 0 1 2.15c2.9 2.08 2.83 2 2.21 3-.86 1.38-1.54 1.48-3.44.51-1.33-.68-1.9-.77-2.57-.41s-.82.53-.17 1.8a2.28 2.28 0 0 1 .22 2.37c-.45 1-.52 1-1.74.37-2.41-1.25-4-.43-1.79.9.71.41 1.19.91 1.07 1.11-.42.67-2.56.31-4.23-.71zM126.26 30a3.19 3.19 0 0 0-2.7-.15c-2 .56-2.74.15-1.71-1 1.32-1.45 2.21-1.74 3.8-1.21 1.78.58 2.58 1.46 2.09 2.31-.3.55-.51.55-1.48 0zm85.74-.2a3.12 3.12 0 0 0-2-.63c-.54.18-.66 0-.5-.61.26-1 4.05-2.4 5.33-2a5.74 5.74 0 0 0 2.54-.25c1.49-.45 1.89-.42 2.89.24l1.17.77-1 .81c-.88.68-2.5 1.27-6.43 2.34a3.32 3.32 0 0 1-2-.67zM94.8 21.74a17.48 17.48 0 0 1-3.21-1.13l-2.13-.95 3-.22c1.64-.12 3-.41 3-.65s-1.16-.53-2.59-.66c-1.88-.17-2.23-.29-1.29-.43 1.57-.24 1.69-.93.21-1.3-1.06-.27-1-.28.44-.92a11.46 11.46 0 0 1 7.78-.61c2 .6 2.31.6 3.25 0 .67-.44 1.07-.51 1.1-.21s.08.71.11 1c.1.93 1 .81 2-.28s2.6-1.5 2.59-.76a7.25 7.25 0 0 1-.85 1.72l-.85 1.39 1.39.73 1.39.73-2.28 1c-2.07.94-2.49 1-4.34.55a5 5 0 0 0-4.11.39 6.13 6.13 0 0 1-4.59.6zm17.31-.3c-.39-.47-.23-.7.78-1.12a3.93 3.93 0 0 1 2.25-.22c.93.3.91.35-.51 1.1-1.81.97-1.9.98-2.52.24zm198.25-3.2c-2.21-.87-2.16-.82-1.52-1.59.3-.37.37-.67.17-.68s0-.3.48-.66.87-.79.87-1c0-.64 1.78-2.32 3-2.89a15.86 15.86 0 0 1 4.1-.81c1.54-.12 3.61-.35 4.59-.5s1.9-.09 2.05.16c.31.5-.27.71-3.62 1.31s-5.32 1.53-6.64 3.09-1.43 2.69-.16 3.58l1 .67h-1.29a10.38 10.38 0 0 1-3-.7zM84.34 17c-.69-.69-.54-.85 2.8-2.67 3.92-2.16 5.86-2.44 9.39-1.33l1.94.59-2.59.51a68.73 68.73 0 0 0-10.15 3.4 1.49 1.49 0 0 1-1.39-.5zm31.18-.56c0-.23-.54-.72-1.19-1.1l-1.19-.68 1.59.25c1.13.18 1.69.08 2-.36s3-1.56 4.14-1.57c.18 0 0 .58-.34 1.29-.91 1.67-5.01 3.46-5.01 2.16zm6.72-1.26c-.62-1 3.6-2.55 5.39-2 1.31.42.44 1.13-1.84 1.51a16.27 16.27 0 0 0-2.57.61.8.8 0 0 1-1-.14zM136 12c-2.85-.23-5.24-.47-5.3-.53-.39-.35.58-1.52 1.61-2s1.49-.36 2.88.35 2.24.8 4.76.62a19.5 19.5 0 0 1 4.32.09l1.22.31-1.51.8a5.93 5.93 0 0 1-2.16.76L136 12zm124.2-1.77c-2.12-1.08-2.32-1.58-.66-1.58a3.82 3.82 0 0 0 1.84-.48c.56-.4.55-.43-.06-.24a1.31 1.31 0 0 1-1.2-.28c-.38-.38-.58-.37-.83 0s-.71.42-1.6.15c-2.28-.68-2.79-1-2.79-1.66s.57-.63 4.1-.38c2.69.19 4.1.14 4.1-.15 0-.85 1.2-.43 1.52.53l.32 1 .19-1c.11-.53.47-1 .81-1a.59.59 0 0 0 .62-.52c0-.4.11-.4.51 0a7.58 7.58 0 0 0 3.46.52c3.08 0 3.81.55 1.75 1.33a8.69 8.69 0 0 1-5-.3c-.41-.13-.75-.07-.75.13 0 .4 2.43 1.86 3.08 1.86a2 2 0 0 1 1 .61c.51.52.51.64 0 .85-.35.13-.63 0-.63-.23s-.55-.36-1.55-.17-1.47.15-1.26-.19A1.06 1.06 0 0 0 267 8c-.55-.67-2.14-.88-2.14-.28a7.3 7.3 0 0 1-1.4 1.9L262 11.16l-1.82-.93zm-114.47-1a5.79 5.79 0 0 0-3.46-.41 6.32 6.32 0 0 1-3.36-.35c-.88-.5-.67-.56 2-.54 3.37 0 4.85-.69 3-1.47-.86-.37-.74-.41.75-.2 1.94.27 2.7-.25 1.64-1.13s.11-1.23 4.12-1q3.72.24 4.68-.27c1.22-.65.74-1.48-.65-1.13-1 .24-7.66-.16-7.38-.44s9.74-1 15.93-1.4c3.23-.2 6.82-.48 8-.63l2.13-.26-3.48 1.67c-3.27 1.57-8.57 3.1-10.75 3.1a11.22 11.22 0 0 0-3.4 1.29 12.64 12.64 0 0 1-3 1.3 13.77 13.77 0 0 0-3.13 1.29l-2.57 1.28-1.07-.65zm-8.42-3.94c-2.09-.46-2.17-.64-.63-1.43 2.24-1.16 4.36-1.46 5.32-.75.77.56.72.65-.78 1.53a4.25 4.25 0 0 1-3.91.65z"/>
    <path id="path2830" fill="#1b348e" d="M134.17 258.77c-2.19-.82-2.8-1.62-2.28-3 .24-.63.7-1.15 1-1.15a12.73 12.73 0 0 1 3.16 1.66 27.1 27.1 0 0 0 3.84 2.12l1.27.46h-1.56c-.86 0-2.12.11-2.8.21a6.5 6.5 0 0 1-2.66-.35zm-5-4.21a2.26 2.26 0 0 0-1.53-.17c-.54.17-1-.08-1.36-.83a3.06 3.06 0 0 0-1.26-1.31c-.87-.3-2.68-3.24-3.69-6a5.2 5.2 0 0 0-2-2.81c-1.45-.82-1.55-1.19-.43-1.55 1.28-.4 1.52-2.66.44-4.17a2.69 2.69 0 0 1-.63-2c.18-.47-.32-1.31-1.54-2.55-1.55-1.57-1.83-2.14-1.9-3.8a5.64 5.64 0 0 0-.58-2.55c-.34-.42-.42-1.91-.23-4.86a26.79 26.79 0 0 0-.47-7.94c-.83-4.09-1.25-11.71-1-18.66a18.66 18.66 0 0 0-.42-4.53c-.69-2.45-3.83-5.54-7.72-7.58-2.79-1.46-3.18-1.84-4.26-4.08a30.4 30.4 0 0 0-2.8-4.52 15.29 15.29 0 0 1-2.15-3.65c-.91-2.83-2.53-5.68-3.64-6.4a4.45 4.45 0 0 1-1.48-2.23c-.38-1.35-.28-1.73.89-3.43 1.27-1.85 1.29-1.93.43-2.15-2.11-.55-1.22-3.37 2.56-8.15 2.52-3.18 3.26-5.6 2.56-8.39-.26-1.07-.5-2.18-.53-2.48s-.21-.54-.42-.54-.16-.39.09-.87c.39-.73.29-.94-.65-1.37-1.37-.62-3.45 0-3.46 1 0 1.25-.55 1.34-2.36.4a9.45 9.45 0 0 0-2.23-.92 7.54 7.54 0 0 1-2.25-1.47c-1-.84-2-1.72-2.32-2a2 2 0 0 1-.54-1.42 2.75 2.75 0 0 0-.85-1.76 6.25 6.25 0 0 1-1.34-2.26c-.36-1.09-.62-1.37-1-1-.71.71-1.77.57-4.32-.56a8.81 8.81 0 0 1-3.28-2.38 7.81 7.81 0 0 0-2.26-2c-1.17-.6-1.46-.6-3.16.05l-1.88.72-5.75-2.79c-3.54-1.71-6.29-3.35-7.14-4.25-1.32-1.4-1.37-1.55-.93-3.28.41-1.58.34-2.07-.54-3.88a19.53 19.53 0 0 0-2.67-3.88c-.92-1-1.57-2-1.44-2.2a8.69 8.69 0 0 0-1.4-3.11 13.79 13.79 0 0 1-2-4.85c-.23-1.71-.51-2.23-1.37-2.63s-1.18-.36-1.7.36c-.74 1-.53 2.08 1.1 5.61a21.5 21.5 0 0 1 1.53 4.74 14.81 14.81 0 0 0 1.18 3.77c1.08 2.12.38 2.09-1.32-.07-1-1.27-1.28-2-1.08-2.76s0-1.26-1-2c-1.59-1.17-1.93-1.93-1.34-3 .34-.63.18-1.33-.68-3s-1.06-2.57-.85-3.85a4.18 4.18 0 0 0-2.34-4.73 2.28 2.28 0 0 1-1.57-2.11c-.15-.87-.43-2.2-.62-3s-.19-1.5 0-1.64.08-.73-.31-1.32a1.82 1.82 0 0 1-.21-2.17 2.07 2.07 0 0 0 .25-1.6c-.14-.24.22-1 .82-1.59a10.84 10.84 0 0 0 1.77-2.81 16.82 16.82 0 0 1 2.56-3.75A19.73 19.73 0 0 0 40 61.12c.79-1.83 1.26-2.4 2-2.4.51 0 .9.23.86.53-.13 1.24.84.85 1.94-.76.65-1 1-1.79.78-1.87a.86.86 0 0 1-.4-.79 7.71 7.71 0 0 0-2-2.58c-1.81-1.76-1.92-2-1.32-2.66a1.11 1.11 0 0 0 .22-1.51c-.57-1 .33-3.31 1.31-3.32.4 0 .52-.14.27-.33-.56-.41-.81-1.33-.73-2.69.12-2.16-.35-3.06-2-3.73a16.28 16.28 0 0 1-2.93-1.7 4.92 4.92 0 0 0-2.11-1 32.84 32.84 0 0 1-4.17-.87c-3-.77-3.55-.8-4.6-.27-2.17 1.12-4.47 1.58-5.41 1.07-.7-.37-1.47-.14-4.14 1.26a27 27 0 0 1-4.8 2 18.62 18.62 0 0 0-3.53 1.35C6.12 42.44 1.6 44 .35 44c-.8 0-.26-.37 1.89-1.22 3.65-1.45 7.4-3.33 7.74-3.89s-.5-.94-1.61-.43a2.16 2.16 0 0 1-2.27-.16l-1.22-.64L6.21 37c1.49-.78 2-1.65 1.62-3s1.5-2.3 5.46-2.9a12 12 0 0 0 4.83-1.59c1.91-1.31 1.58-2.3-.48-1.44a4.24 4.24 0 0 1-3.15 0c-1.76-.48-1.82-.54-1-1.12a9.12 9.12 0 0 1 5.81-1.25 4.49 4.49 0 0 0 3-.44l1.38-.71-.91-1a4.37 4.37 0 0 1-.91-1.22c0-.4 2.6-1.2 3.9-1.2a15.9 15.9 0 0 0 3.95-1.05 47.5 47.5 0 0 1 7.82-1.74c4.49-.62 5.45-.63 8.82-.07 2.08.35 5 .76 6.37.92a44.36 44.36 0 0 1 5.6 1.11A18 18 0 0 0 69 20.29a14 14 0 0 1 4.27-.63 2.5 2.5 0 0 0 1.68-.21 2 2 0 0 1 2.13.18 5.67 5.67 0 0 0 3.35.4 10.14 10.14 0 0 1 4.78.66 17.64 17.64 0 0 0 3.64.91c.94 0 .94 0 .12.61s-.8.63 0 .93a11 11 0 0 0 3.34 0c2.53-.26 2.55-.25 3.26 1.11l.71 1.38.93-1.16a6.61 6.61 0 0 1 3-1.77 5.37 5.37 0 0 1 4.09 0 9.48 9.48 0 0 0 3.89.36 3.52 3.52 0 0 1 3 .59c1.19.84 1.22.84 2.27 0a9.37 9.37 0 0 1 2.67-1.27c2.12-.59 2.84-1.85 1.57-2.74-.9-.63-.86-.68 1.5-1.84 1.77-.87 2.56-1.07 2.91-.72s.34.72 0 1.38c-.61 1.13.14 2.83 1.08 2.47a2.05 2.05 0 0 1 1.25 0c.54.21.53.39-.07 1.31-1.65 2.53 2.06 1.81 4.58-.89a3.71 3.71 0 0 1 4.1-.85c1 .36.87.67-.72 2.41-1.89 2.08-2.86 2.5-5.71 2.5a9.87 9.87 0 0 0-3.76.69 2.25 2.25 0 0 1-2.38.21c-1.54-.7-2.08-.12-1 1.06l.94 1-1.88.54a18.3 18.3 0 0 1-3.82.59c-1.55.06-2 .22-2 .84s-.76 1.07-2.37 1.73c-5.25 2.15-9.69 6-8.08 7a4.14 4.14 0 0 1 1.06 1.52A2.4 2.4 0 0 0 105 42.1a21.39 21.39 0 0 1 3.79 1.51 23.13 23.13 0 0 0 3.88 1.56c2 .43 2 .47 1.07 2.79-.78 2-.8 2.26-.19 3.43.36.7.89 1.27 1.18 1.26 1.42 0 2.74-1.34 3.57-3.5s1.14-2.45 3.39-3.65c3.33-1.78 4.71-3.53 4.35-5.49-.24-1.28-.12-1.58 1-2.36a7.65 7.65 0 0 0 2-2.62c.95-2.11 2.48-2.85 5.07-2.42 2.29.37 5 1.83 5.33 2.86a2.61 2.61 0 0 1-.25 1.69c-.41.76-.33 1.09.46 1.94l1 1 1.56-.81a25 25 0 0 0 3.06-1.93l1.5-1.12.35 1a2.66 2.66 0 0 1 .12 1.55 2.12 2.12 0 0 0 .22 1.44 1.62 1.62 0 0 1 .06 1.54c-.27.49-.09 1.23.6 2.45 1 1.75 1 1.75.12 2.37-1.15.8-.41 1.66.85 1a3.15 3.15 0 0 1 3.58.22c1.3 1.18.22 2.59-3.26 4.23-3.77 1.78-5.45 2.13-10.38 2.17-3.64 0-4.12.15-7.66 1.85a15 15 0 0 0-3.78 2.19c0 .89.66.81 3.17-.38a13.1 13.1 0 0 1 4.29-1.26c1.55 0 1.61.05 1.12 1a6.33 6.33 0 0 1-1.34 1.62c-.72.59-.76.84-.31 1.83.67 1.48 2.44 2.2 4.56 1.84l1.67-.28-1.28.89a8.9 8.9 0 0 1-2.59 1.17 17.66 17.66 0 0 0-3.28 1.27 4.15 4.15 0 0 1-2.5.66c-.68-.42 0-1.05 2.26-2 2-.82 1.66-1.7-.47-1.3a45.16 45.16 0 0 0-6 2.25c-3.83 1.69-4.5 2.13-4.72 3.15-.28 1.25-1.21 1.84-4.5 2.84a8.47 8.47 0 0 0-3 1.71 17.52 17.52 0 0 1-2.61 2.08 4.21 4.21 0 0 0-1.74 2c-.23 1-.29 1-.57.25-.54-1.41-1.36 0-1.4 2.36s-1.3 4.13-4 5.41-6.77 4.43-7.58 5.92c-.71 1.33-.74 1.84-.3 5.24.4 3.17.38 4-.16 5-.4.78-.87 1.15-1.26 1-.93-.36-2.06-4.17-1.74-5.86a2.13 2.13 0 0 0-.8-2.44 2 2 0 0 0-1.91-.74 6 6 0 0 1-2.91-.62c-1.74-.75-2.3-.81-3.54-.4a3.57 3.57 0 0 0-2 1.54c-.4.9-.67 1-1.8.77a12.08 12.08 0 0 1-2.49-.88c-1.58-.81-2.46-.75-4.24.27-.82.47-2.51 1.38-3.75 2a5.52 5.52 0 0 0-2.65 2.26c-.22.61-1 3-1.77 5.27l-1.36 4.17.7 2.69c1.28 4.93 3.06 6.41 6.77 5.62 2.79-.6 4.47-1.82 5.09-3.69a2.44 2.44 0 0 1 2.08-1.93c1.9-.53 2.7-.55 3.43-.09s.39 1-2.31 6.87c-1.86 4-1.72 4.38 1.46 3.92 2.89-.42 5.54-.1 5.85.71a22.57 22.57 0 0 1-.44 4.71c-.64 4.07-.64 4.16.29 5.66a7 7 0 0 0 2.16 2.16c1.07.55 1.41.55 2.75 0 2.14-.9 3.3-.8 4.78.39 1.19.95 1.36 1 2.29.36a6 6 0 0 0 1.68-2c.83-1.66 2.24-2.82 3.42-2.84a3.38 3.38 0 0 0 1.9-1.08c1.14-1.21 3.13-1.6 2.16-.43-.82 1-1.29 4.16-.76 5.14.44.82.47.82 1.27-.17.57-.7.68-1.15.37-1.46-.74-.74-.52-1.36.86-2.38s2.54-.95 3.78.37c.9 1 5.74 2.28 7.13 1.93 2.11-.53 7.81 2.94 10 6 1 1.49 4.28 3 5.71 2.62 2.95-.74 7 2.22 7.94 5.8a5.57 5.57 0 0 0 .94 2.21c.63.4-.31 2-2.37 3.91-1.32 1.25-1.63 1.79-1.26 2.16s1 0 2.44-1.3c2.13-2 2.84-2.16 3.9-1.1.65.65.63.78-.26 1.73a3.3 3.3 0 0 1-1.64 1.05c-.39 0-.23.21.38.45.84.34 1.28.24 2.16-.46 2.27-1.84 2.81-1.93 4.83-.8 1.32.73 1.85 1.29 1.78 1.88-.18 1.65.2 2 1.35 1.27.9-.6 1.52-.63 4.56-.21 3.23.44 3.65.62 5.2 2.17a9.09 9.09 0 0 0 4.06 2.37c2.18.64 2.42.83 2.82 2.3.57 2.13-.1 4.49-1.92 6.74a22 22 0 0 0-2.11 3.13 12.14 12.14 0 0 1-1.83 2.51c-1.05 1-1.11 1.3-.84 3.79.5 4.85-1.87 13.91-4.16 15.85a2.76 2.76 0 0 1-2.57.59c-1-.15-1.69 0-1.88.26a6.62 6.62 0 0 1-2.09 1.28 15.86 15.86 0 0 0-3.25 2c-1.4 1.19-1.44 1.32-1 2.74a6 6 0 0 1-1 5.24 4.16 4.16 0 0 0-.68 2 5 5 0 0 1-1 2.38q-1.28 1.81-2.36 3.74c-1.84 3.25-2.94 3.81-5.61 2.86-2.31-.83-3.54-.93-3.54-.29 0 .24.46.65 1 .91a5.7 5.7 0 0 1 1.95 2.32c.76 1.52.84 2.05.45 2.92-.62 1.34-3 2.47-5.14 2.47-1.93 0-2.41.47-1.74 1.72a2.87 2.87 0 0 1-.66 2.95 3.8 3.8 0 0 1-1.5-.57c-1.82-.94-2.46-.34-1.55 1.43a3.6 3.6 0 0 0 1.58 1.6c.85.27.86.33.17 1.09a1.72 1.72 0 0 0-.46 1.51 3.07 3.07 0 0 1-.86 2.17c-1.09 1.42-1.1 1.52-.41 2.58a4.08 4.08 0 0 0 1.38 1.36c1.3.49 1.51 2.2.52 4.14s-1.14 3.9-.37 4.82-1.66 2.48-2.71 1.89zM97.39 67.66c1.16-2.41 3.3-4.2 5-4.2 1.24 0 1.26.2.12 1.65l-.9 1.13.92.75a1.52 1.52 0 0 0 2 .27 2.67 2.67 0 0 0 1.31-1.32c.2-.62.52-.77 1.28-.58a1.1 1.1 0 0 0 1.43-.49c.88-1.56-1.35-3.57-3-2.69a1.75 1.75 0 0 1-2.39-1.94 2.63 2.63 0 0 0-.56-1.91c-.89-1.18-2.25-1.3-5.22-.48a12.49 12.49 0 0 1-2.7.51c-.42 0-.65.15-.52.38s.1.41-.1.41a4.45 4.45 0 0 0-1.42.84l-1.07.82 1.2.46a2.64 2.64 0 0 0 2.56-.27c1.23-.64 1.46-.64 2.8 0a4.49 4.49 0 0 0 2.47.44c.56-.14 1.13-.06 1.28.18s-.46.55-1.39.71c-2.52.42-3.84 1.47-5.67 4.54-1.53 2.56-1.62 2.87-1 3.55s.77.67 1.59.1a9.32 9.32 0 0 0 2-2.9zm7.84 2.66c1.54-.78 1.69-1 1.15-1.52s-.89-.5-2.65.28c-2.07.91-2.72 2.14-1.14 2.14a8 8 0 0 0 2.64-.9zm7.66-3.26c.89-.63.93-.75.29-1.1-.93-.53-3.7.37-3.7 1.2s2.14.79 3.41-.1zm32.4 186.36a1.82 1.82 0 0 1 .52-.86c.29-.29.36-.52.16-.52s-.6.32-.88.71c-.41.55-.69.6-1.34.22-.47-.27-.58-.48-.26-.49s.44-.2.29-.44c-.28-.46.46-.58 2.59-.44 1.9.13 2.1.41.92 1.34s-2 1.08-2 .48zm360.39-10.83q-1.85-1.17 7.71-5.18a33.1 33.1 0 0 0 6-3.47c2.61-2 2.83-2.06 3.35-1.32.78 1.12.32 1.94-1.6 2.8a8.92 8.92 0 0 0-2.56 1.78 3 3 0 0 1-1.76 1 5.57 5.57 0 0 0-2.48 1.45c-3.05 2.74-6.91 4-8.69 2.91zm-30.2-5.59c-.45-.28-.47-.57-.11-1.26a5.56 5.56 0 0 0 .48-2.24c0-1.21.1-1.32 1-1a10.44 10.44 0 0 0 2.48.4c.83 0 1.66.08 1.85.12.71.13-1.2 2.31-2.92 3.31-2 1.2-2 1.18-2.75.68zm49.87-3.77c-.15-.15.2-.65.79-1.11.88-.69 1-1 .6-1.7-.56-1.05.27-2.16 2.18-3 1.49-.61 1.86-1.86 1.46-4.87-.27-2.07-.24-2.2.43-1.65s.65 1 .47 2a2.77 2.77 0 0 0 .89 2.74c1 1.17 1.27 1.29 2 .88s.85-.37.61.26a4.7 4.7 0 0 0-.28.9 5.28 5.28 0 0 1-1.4.89 23.26 23.26 0 0 0-3.35 2.32c-1.73 1.43-3.52 2.59-4 2.59a.88.88 0 0 1-.44-.27zm-45.64-5.57c-.9-1-1.07-1-1.94-.44-1.12.73-3.21.31-4.88-1-.9-.69-1-.92-.5-1.78a2 2 0 0 0 .05-2 5.31 5.31 0 0 1-.47-1.88c0-1.05-.68-1.1-1.24-.1-.24.42-.55.63-.7.48s.35-1 1.11-1.85c1.88-2.14 1.14-2.72-1.33-1.06a8.78 8.78 0 0 0-2.1 1.74c-.08.24-.59-.5-1.14-1.65a8.09 8.09 0 0 0-2.51-3.08c-1.37-.91-1.84-1-4.47-.72a30.77 30.77 0 0 0-10 2.56 17 17 0 0 1-4.94 1.31 28.49 28.49 0 0 0-5.77 1.36c-2.36.89-3 1-4.23.59-1.6-.53-2.26-1.62-1.23-2a5 5 0 0 0 1.52-2.2c.73-1.7.77-2.23.34-4.44a19.12 19.12 0 0 1 0-6.36 22.59 22.59 0 0 0 .21-4.79 6 6 0 0 1 .47-2.77c.68-1.8.85-1.91 5.48-3.87a29.19 29.19 0 0 1 6-2c1.78 0 4-1.69 5.21-4 .75-1.43 1.27-2 1.72-1.79 1.26.48 1.51.39 1.42-.55a1 1 0 0 1 .71-1.2 5.14 5.14 0 0 0 1.82-1.74 6.93 6.93 0 0 1 2.69-2.17c1.58-.63 1.74-.62 2.59.16 1.58 1.44 2.7 1.86 3.24 1.21.26-.31.35-.69.2-.84-.5-.5 1.76-3.33 2.87-3.61a16.64 16.64 0 0 0 2.71-1.08 3.77 3.77 0 0 1 3.45-.32c3.37.9 3.48 1.05 2.23 2.95-1.61 2.44-1.19 3.39 2.77 6.18 1.83 1.28 3.55 2.26 3.84 2.16a9.1 9.1 0 0 0 2-2.18 7.93 7.93 0 0 0 1.7-4.4c.25-2.52 1.46-6 2.08-6 .2 0 .67 1 1 2.31a8.85 8.85 0 0 0 1.72 3.3c1.35 1.26 2.13 4.8 1.53 6.89-.4 1.39-.33 1.61 1 3a19.92 19.92 0 0 1 2.86 4.55 33.58 33.58 0 0 0 3.05 5.22l1.67 2.21-.48 3.4a15.39 15.39 0 0 1-1.93 6c-1.63 2.88-4.06 5.62-5.34 6a8.37 8.37 0 0 0-2.38 2.4 7.26 7.26 0 0 1-2 2.14 9 9 0 0 0-2.2 2.24c-1.62 2.06-1.92 2.25-3.61 2.28a5.35 5.35 0 0 0-3.37 1.19l-1.51 1.15-1-1.05zm-210.42-9.08a2.42 2.42 0 0 1-.86-2.64 3.71 3.71 0 0 0-.81-3.09 6.46 6.46 0 0 1-1.06-2 11.94 11.94 0 0 0-1.7-2.74 8 8 0 0 1-2-5.15 34.13 34.13 0 0 0-3.64-12.36 19.83 19.83 0 0 1-1.95-4.8c-.33-2.08.51-5.17 2.44-8.92l1.28-2.49-.72-2.17a7.51 7.51 0 0 1-.45-3.25 3.25 3.25 0 0 0-.56-2.46 19.57 19.57 0 0 1-1.5-3.75 8.77 8.77 0 0 0-2.62-4.27c-2.73-2.69-3.09-3.74-2.24-6.66 1.73-5.95-.14-9.41-4.7-8.73-1.77.27-1.84.23-2.09-1-.19-1-.71-1.53-2-2.2-1.71-.86-2.44-.87-4.53 0-.47.2-2.41.87-4.31 1.49-2.86.94-3.71 1.06-5 .7s-2.16-.25-4.57.41-3.4.76-4.74.39c-2.81-.78-7.63-5.13-8.32-7.5-.53-1.83-3.83-6.11-5-6.42-.72-.2-.8-.35-.37-.63s.37-.43-.32-.61c-1.09-.28-1.2-1.18-.14-1.19.64 0 .66-.06.1-.42-.4-.26-.45-.42-.12-.43s.21-.53-.37-1.53c-.83-1.4-.85-1.59-.22-2.29 1.93-2.13 2.36-6.72.89-9.62-.7-1.38-.25-3.29 1.24-5.27a37.77 37.77 0 0 0 2.45-4c1.36-2.58 4.4-6.16 5.23-6.16s3.99-3.3 3.99-4.28a7.15 7.15 0 0 1 3.48-5.8 11.59 11.59 0 0 0 3-2.82c1-1.66 1.17-1.71 2.36-.88a7.89 7.89 0 0 0 2.58.88c1.46.25 2.15.07 4.32-1.09A16.34 16.34 0 0 1 246 80.61c2.81.17 4.08.06 5.44-.48 2-.81 3.74-.33 3.27.89a1.34 1.34 0 0 0 .2 1.21c.31.37.3.91 0 1.74-.4 1-.31 1.35.67 2.38a5.62 5.62 0 0 0 2.48 1.45c3.46.69 4.45 1.14 5.17 2.35a3.07 3.07 0 0 0 2.35 1.56 12.56 12.56 0 0 1 2.85 1c1.16.6 1.31.58 2.28-.34.66-.61.95-1.26.8-1.74a2.43 2.43 0 0 1 .23-1.65c.66-1.24 2.56-1.12 5.52.36 3.22 1.62 9.34 2.77 11.51 2.17a5.2 5.2 0 0 1 2.95 0c3 .91 4.51.2 4.92-2.31.14-.84.37-1.52.51-1.52s.43-1.25.47-4c0-.89.22-1.62.47-1.62s.27-.31-.05-.9c-.53-1-1.6-1-4.18.08a2.25 2.25 0 0 1-2.66-.24c-1.42-.84-2.88-1-3.3-.29-.31.51-2.52.15-3.71-.59a4.56 4.56 0 0 1-1.67-3.31 2.22 2.22 0 0 0-1-1.5c-.82-.59-.87-.75-.32-1.11a2.41 2.41 0 0 1 1.63-.19c.68.16 1.31-.11 2.11-.91a4 4 0 0 1 2.69-1.22 6.53 6.53 0 0 0 2.75-.87c1.42-.94 4.66-.68 7.17.58 3.39 1.69 6.4 1.59 7.61-.25.63-1 .63-1.17 0-2.08a15.85 15.85 0 0 0-3.89-2.85l-3.22-1.83.6-1.17c.34-.64.5-1.28.37-1.41s-.09-.5.11-.81a3.55 3.55 0 0 0 .44-1.13c.1-.65-.6-.47-4 1-2 .88-2.29 1.15-1.85 1.68a2.22 2.22 0 0 0 1.45.66c.71 0 .54.21-.74.89-1.54.81-1.72.82-2.72.16s-1-.82-.57-1.31.35-.68-.29-.92a3.22 3.22 0 0 1-1.27-.92c-1.23-1.64-5.16 2.69-6.3 7-.53 2-.51 2.11.49 2.87l1.05.79-1.92.4a8.4 8.4 0 0 1-3.16.06c-1.26-.35-2.86.17-2.86.92 0 .23-.29.29-.65.16a1.39 1.39 0 0 0-1.27.26c-.52.43-.46.79.41 2.42s1 2 .38 3.18c-.74 1.48-1.42 1.37-2.46-.39-.72-1.23-.72-1.25.24-1.39 1.21-.17 1.29-.94.12-1.13-2.68-.42-4.1-1.83-4.1-4a5 5 0 0 0-3.55-4.22 5.56 5.56 0 0 1-2.44-1.41 5.8 5.8 0 0 0-2.15-1.51 5.94 5.94 0 0 1-2.13-1.47c-.45-.65-.75-.72-1.41-.37a1.53 1.53 0 0 0-.84 1.07c0 1.12 5.5 6.19 8.19 7.54 2.85 1.44 3.3 2 1.32 1.52-1.77-.39-2.25 0-1.65 1.33.43.93.36 1.21-.5 2l-1 1 .23-1.28c.36-2-2.33-5-4.56-5-.82 0-4-3-4.79-4.64s-1.86-2-3.24-1.09c-2.09 1.41-3.66 1.89-5.3 1.62-2.17-.37-3.54.39-3.19 1.77.18.72.08 1-.33 1a4.58 4.58 0 0 0-1.84 1.08 5.59 5.59 0 0 1-1.59 1.08c-.53 0-2 2.73-2 3.69s-1.69 2.76-3.32 3.59a7.19 7.19 0 0 1-2.68.49c-1.31 0-1.85.21-2.21.89-.48.88-.49.88-1.6-.23s-1.63-1.29-3.73-1.62c-1.1-.17-1.28-2.66-.46-6.21a11.69 11.69 0 0 0 .38-3.77c-.4-1.63.88-2.59 3-2.26 4.94.76 7.83.8 8.51.12.93-.93 1.35-4 .78-5.73-.37-1.12-.88-1.58-2.4-2.16-2.24-.86-2.28-1.68-.09-1.7a5.86 5.86 0 0 0 2.67-.78c.63-.41 1.34-.64 1.56-.5.61.37 2.92-1 3.69-2.13a3.33 3.33 0 0 1 1.62-1.27 12.11 12.11 0 0 0 3.11-2.25c1.68-1.57 2.56-2.06 4-2.23 1.79-.22 3.59-1.68 2.74-2.24a4.22 4.22 0 0 1-.67-3.2 4.08 4.08 0 0 1 1.36-1.38l1.11-.73-.29 1.78c-.24 1.54-.18 1.76.48 1.65a6.81 6.81 0 0 0 1.74-.67c.82-.44 1-.42 1.23.14.37 1-.66 2.1-1.37 1.51-.39-.33-.64-.32-.86 0s-.4.34-.66-.08-.45-.47-.57-.35.22.78.76 1.46c.92 1.15 1.09 1.2 2.4.75a2.7 2.7 0 0 1 2.6.12c1.07.56 1.44.53 3.5-.25 1.81-.69 2.52-.78 3.32-.41a2 2 0 0 0 2 0c1.95-1 2.48-1.76 2.24-3.14-.36-2.06.3-2.74 2-2.08 1.17.44 1.52.42 2.05-.11s.51-.77-.41-1.75-.95-1.17-.41-1.54a6.41 6.41 0 0 1 2.92-.18c2.29.24 5.14-.66 4.65-1.46s-3.07-.91-5.3-.41c-2 .44-2.49.4-4-.28-2.35-1.06-2.63-2.3-1-4.55 2.08-2.9 2.46-3.82 1.87-4.53-.88-1.06-1.74-.71-3.74 1.49a12.37 12.37 0 0 1-3.2 2.65 4.5 4.5 0 0 0-1.94 1.8c-.58 1.13-.58 1.37 0 2.28a3.52 3.52 0 0 0 1.54 1.29c1.32.42 1.06 1.21-.83 2.51a6.07 6.07 0 0 0-1.73 2.5 4.83 4.83 0 0 1-2.25 2.69c-1.53.89-1.6.9-2.45.13a4.39 4.39 0 0 1-1.14-2 7.43 7.43 0 0 0-1.44-2.59l-1.18-1.42-1.5.92a6 6 0 0 1-2.36.9 3.51 3.51 0 0 1-3.06-2.85 8.37 8.37 0 0 0-.39-2c-.38-1 1.55-2.78 3.56-3.33s6.1-3.42 6.8-4.77a12.88 12.88 0 0 1 2.27-2.57 7.1 7.1 0 0 0 1.77-2c0-.24.92-.76 2.05-1.16s3-1.13 4.21-1.62a15.75 15.75 0 0 1 5.61-1c4.07-.1 6.73.44 8.93 1.81a3.78 3.78 0 0 0 2.81.76c1.49-.3 9.43 2.17 9.76 3s-1.95 1.68-3.9 1.4c-.9-.13-2.76-.47-4.13-.77-1.85-.39-2.62-.41-3-.05s-.18.63.69 1a4.37 4.37 0 0 1 1.8 1.74c.88 1.69 3.68 3.06 5.12 2.52s1.38-.7-.09-1.49-.73-.9 1-.25c1.36.52 2.9-.12 2.54-1.06-.17-.43.3-.75 1.64-1.09 2.84-.73 3.05-.84 2.81-1.41-.89-2.19-.9-2.12.4-2 .69.08 1.2.38 1.14.67s.31.75.8 1c.75.4 1.34.25 3.4-.83 3-1.58 5.38-2.1 6.25-1.37.49.41 1.3.41 3.65 0a11.62 11.62 0 0 1 3.43-.25.53.53 0 0 0 .71-.19c.34-.55-.6-1.8-1.12-1.48s-2.66-.31-2.22-.75 12.46 2.35 13.18 3.07c.48.48 2-.16 2-.85 0-.23-.86-.84-1.91-1.35-3.24-1.58-3.45-4.1-.4-4.87 1.77-.44 2.54.07 5 3.34 3.18 4.25 3.1 4 2.06 5.49-.77 1.08-.82 1.34-.28 1.54 1 .39 3.17-1 3.48-2.18.36-1.43-.31-2.64-1.9-3.46a3.69 3.69 0 0 1-2.16-2.83c0-.33.47-.42 1.4-.25 1.4.26 2.56-.25 5.73-2.51a6.05 6.05 0 0 1 3.18-.88c2.51-.06 3.32-.48 2.6-1.35-.29-.34-.43-.71-.32-.82.55-.55 7.66-1.54 9.29-1.3a3.42 3.42 0 0 0 3.36-.88c.83-.63 1.52-1.32 1.52-1.53 0-.53-3.78-.48-4.1 0-.46.73-1 .48-.88-.38s-.22-.84-3.37-1.09c-8.58-.66-9.28-.82-8.25-1.85s3.13-.89 5 0a7.54 7.54 0 0 0 2.8.69 2.51 2.51 0 0 1 1.68.43 2.52 2.52 0 0 0 1.68.43c2.16 0 6.32.93 6.06 1.35-.13.21.27.38.89.38a6.51 6.51 0 0 1 2.51.74c1 .55 2.45.75 5.48.76 3.26 0 4.34.18 5.29.82.65.44 1.18.92 1.18 1.07a8.48 8.48 0 0 1-2.22 1.49c-2.93 1.62-2.31 2.33 1.24 1.41 2.29-.6 2.82-.6 4.72 0a5.88 5.88 0 0 0 3.59.22 7.28 7.28 0 0 1 4 .24 7.13 7.13 0 0 0 4.14.21 12.15 12.15 0 0 1 8.17.52l4 2.2c2.19 1.19 2.29 1.21 3.81.53a5.19 5.19 0 0 1 3.85-.26c1.86.35 2.54.31 3.59-.23s1.19-.8.8-1.27c-.76-.91 1.93-1.25 5.24-.66 1.51.27 3.43.54 4.26.6a13.66 13.66 0 0 1 3.6 1.05c1.76.8 3.09 1 8.23 1.12 4.89.13 6.44.33 7.62 1s2.55.8 7.09.85c4.17 0 6 .24 7.27.77 2 .86 2.8.54 1.71-.68-.78-.87-.78-.87 2.24-.57 5 .5 11.11 1.6 13.16 2.4a23.4 23.4 0 0 0 4.52 1.07 16.59 16.59 0 0 1 4.61 1.34c1.68.85 2.23.95 3.32.57 1.48-.52 2.44-.15 4.71 1.82l1.4 1.22-1.06.27a8.25 8.25 0 0 1-4.86-1.21.88.88 0 0 0-.89-.18 5 5 0 0 1-2.25-.41c-2.41-.83-3.48-.52-2.38.69.75.83.74.85-.7.75-2.67-.19-1.94.6 2 2.13 2.14.84 4 1.61 4.09 1.72.41.39-.93.87-1.9.69s-3.7.94-3.7 1.61a3 3 0 0 1-.92 1.26c-.85.79-1 .81-2.16.22a2 2 0 0 0-2.42 0 13.38 13.38 0 0 1-2.48.91 5.55 5.55 0 0 0-1.83.76c-.87.72.67 2.82 2.82 3.86a4.37 4.37 0 0 1 2.28 2 16.73 16.73 0 0 0 1.05 2.28c.57 1 .57 1.16-.05 1.4a.69.69 0 0 0-.47.84.58.58 0 0 0 .08.18 8.67 8.67 0 0 1 .41 1.83 7.42 7.42 0 0 0 .43 1.79c.22.52 0 .8-.65 1s-1.26-.05-2.51-1.42a25.76 25.76 0 0 0-3.18-2.91 22.18 22.18 0 0 1-3.56-3.75c-1.87-2.49-1.91-2.6-1.29-3.81a6.19 6.19 0 0 0 .66-2.23 5.34 5.34 0 0 1 .61-2.06c.62-1.13.38-2-1-3.56a1.15 1.15 0 0 0-2 1c.36 1.14-.75 1.51-2 .67a9.18 9.18 0 0 0-2.83-1c-1.73-.27-1.86-.22-2.3 1a5.15 5.15 0 0 0-.24 2.4c.19 1 .06 1.19-1 1.42a5.47 5.47 0 0 1-2.85-.44 4.48 4.48 0 0 0-2.79-.37 27.85 27.85 0 0 1-4.65.36c-3.07 0-3.66.16-4.6 1a7.35 7.35 0 0 0-1.57 3 12.69 12.69 0 0 1-1.12 3c-.59.92-.54 1 1.15 1.87a7.11 7.11 0 0 0 5.36.66c1.17-.4 4.74 2.38 5.85 4.57a5.84 5.84 0 0 0 1.74 2.28c1.76.94 2.12 7.13.65 11.18-1 2.8-2.17 3.71-3.84 3.08a10.67 10.67 0 0 0-1.31-.45 8.88 8.88 0 0 0-1.07 1.77c-.67 1.28-.8 1.93-.47 2.32.63.76.17 1.74-1.09 2.32-.58.26-1.06.67-1.06.9a13 13 0 0 0 3 2.48c2.1 1.44 3.23 2.55 3.74 3.69A4.36 4.36 0 0 1 456 83a22.19 22.19 0 0 1-2 1.06l-1.79.9-1.07-2.46c-1.2-2.76-2.23-3.87-4.05-4.36-.91-.25-1.23-.6-1.23-1.35s-.45-1.28-1.4-1.84c-1.39-.81-1.41-.81-2.89.1s-1.49.91-1.94.07a4.07 4.07 0 0 1-.46-1.52 1.49 1.49 0 0 0-.81-1.09c-.66-.35-1.07-.14-2.28 1.17a14.27 14.27 0 0 1-2.32 2.08c-.72.41-.76.58-.26 1.17a11.06 11.06 0 0 0 2.44 1.74c1.62.91 1.93 1 2.48.41s.95-.54 2.52-.11l1.9.51-1.06.71c-1.95 1.31-2.57 2-2.85 3.17-.23 1-.09 1.27.78 1.66a5.75 5.75 0 0 1 2 2.35 7.12 7.12 0 0 0 2.17 2.63c1.58.94 2 1.93 1.12 2.44s-.44 1.18.68 1.18c1.35 0 1.35.81.05 5.43-1.57 5.61-3 7.48-6.7 8.84a18.79 18.79 0 0 1-4 1 5.25 5.25 0 0 0-4.06 2.22l-.89 1.13-.41-1.09c-.54-1.43-1.78-1.78-3.56-1a5.18 5.18 0 0 0-3.14 3.21c-.39 1.28 1 3.52 3.26 5.32a15.55 15.55 0 0 1 4.46 7.89c.42 2.35-.33 3.9-2.37 4.81a4 4 0 0 0-1.93 1.53c-.32 1-2.23 2.26-2.58 1.69a1.79 1.79 0 0 1 0-1.23 2.64 2.64 0 0 0 0-1.5c-.22-.55-.45-.6-1.13-.24s-1 .29-1.56-.54c-1.41-2-5.49-5.33-6.62-5.33-.4 0-.55.48-.49 1.51a15.56 15.56 0 0 1-.37 3.6c-.43 1.88-.38 2.22.42 3.3a8.32 8.32 0 0 1 1.17 2.3 9.78 9.78 0 0 0 2.83 3.14c2.37 1.9 2.63 2.28 3.63 5.45a38.42 38.42 0 0 1 1.07 3.81c0 .74-.9.44-2.78-.91s-3.19-3.61-4.22-7.51a5.25 5.25 0 0 0-2.35-3.46c-1.71-1.26-1.76-1.37-1.63-3.46.08-1.19.28-2.87.44-3.74.22-1.22 0-2.1-.82-3.88a26.72 26.72 0 0 1-1.61-4.32c-.61-2.49-1.46-2.9-3-1.45a5.33 5.33 0 0 1-1.41 1.09c-.69 0-1.63-1.46-1.4-2.17.41-1.3-2.12-5.81-3.6-6.43a4.23 4.23 0 0 1-2.05-2.24c-.86-1.91-1.82-2.64-2.79-2.11a18.58 18.58 0 0 1-3.11.85c-2.5.51-3.39 1.27-3 2.58.13.48-.31.94-1.36 1.44a4.87 4.87 0 0 0-2 1.81 2.69 2.69 0 0 1-1.32 1.34 3.81 3.81 0 0 0-1.56 1.47 12.85 12.85 0 0 1-2.67 2.69c-1.45 1.12-1.91 1.74-1.83 2.53.42 4.6-.23 8.45-1.82 10.74s-1.65 2.29-3 1.7a2.45 2.45 0 0 1-1.34-1.95 32.49 32.49 0 0 0-1.93-5c-5.52-11.85-6.34-14.11-5.87-16.25.32-1.45-.44-3.63-1.18-3.38a.9.9 0 0 0-.55.79c0 2-2.25 2.27-4 .54l-1.14-1.14 1-.37c1.11-.41 1-1.51-.12-1.31a3.49 3.49 0 0 1-2-1 5.49 5.49 0 0 0-1.68-1.1c-.21 0-.5-.39-.65-.87-.4-1.26-2.69-2.35-3.83-1.83s-10.4.37-12-.12a7 7 0 0 1-2.32-1.81c-1.29-1.47-1.31-1.47-3.24-1s-2.09.44-4.56-.8c-2.12-1.08-2.76-1.66-3.42-3.11-.84-1.86-2.7-3.21-3.83-2.77a2.29 2.29 0 0 0-.93 1.51c-.22 1 0 1.64 1.07 3.08a13.25 13.25 0 0 1 1.78 3.47c.52 1.95 1.56 2.53 2.42 1.36.52-.71.66-.74 1-.18a1.56 1.56 0 0 1 .27 1.07c-.24.75 2.25 2 3.41 1.69a8.27 8.27 0 0 0 2.79-2.23c1.49-1.69 2-1.8 1.75-.38a2.89 2.89 0 0 0 1.83 2.72c1.93 1 4.61 3.21 4.61 3.81a3.61 3.61 0 0 1-1.12 1.55 11.62 11.62 0 0 0-2 2.7c-1.14 2.22-4.43 5.46-5.55 5.46a5.73 5.73 0 0 0-4 2.26 6.36 6.36 0 0 1-2.12 1.73 67.25 67.25 0 0 1-10.43 4.38c-1.48.28-1.6.21-2.39-1.34a15.37 15.37 0 0 1-1.15-4 6.59 6.59 0 0 0-1.56-3.79 5.87 5.87 0 0 1-1.24-1.83 8.42 8.42 0 0 0-1.73-2.2 9.51 9.51 0 0 1-2.43-4.21 12.93 12.93 0 0 0-1.69-3.58c-4-4.92-5.13-6.65-5.72-8.46-.78-2.4-1.44-2.79-1.75-1l-.22 1.25-1.46-1.85c-2.25-2.84-2.53-1.55-.42 1.92 1 1.64 2.6 4.54 3.54 6.44a43.36 43.36 0 0 0 2.73 4.7 5.21 5.21 0 0 1 1 2.73c0 1.63.49 2.64 2.39 5a9.35 9.35 0 0 1 1.68 3.08c.21 1 1 2 2.83 3.39 2.72 2.18 4.49 4.46 4.92 6.36a3.1 3.1 0 0 0 1.58 1.86c1.2.62 1.63.6 5.43-.22a32.9 32.9 0 0 0 5.34-1.53l1.22-.62.29 1.7c.26 1.56 0 2.3-3.1 8.2-3.3 6.33-3.45 6.54-6.74 9.13a31.14 31.14 0 0 0-4.3 4c-.51.73-2.16 2.69-3.66 4.35-4.39 4.87-5 9.14-2.08 14.88a5.35 5.35 0 0 1 .86 3.25 9.67 9.67 0 0 0 .2 3.26c.41 1.9.37 2.41-.34 3.8-1 2-1.83 2.72-4.69 4.15a6 6 0 0 0-2.26 1.54 11.75 11.75 0 0 1-1.94 2.6 11.17 11.17 0 0 0-1.95 2.62 10.09 10.09 0 0 0 .89 2.18c1.47 2.87.49 5-3 6.41-1.48.62-2 1.87-1.6 4.13.19 1.18.07 1.58-.6 1.94a7 7 0 0 0-1.86 2c-1.77 2.77-6.86 7.69-9.17 8.86-1.93 1-2.42 1-3.84.66a7.68 7.68 0 0 0-4.35.24c-3.39.85-3 .89-4.34-.43zm56.84-137.66c1.11-.57 1.27-.89 1.27-2.53a3.38 3.38 0 0 0-.67-2.44 7.12 7.12 0 0 1-1.34-1.84c-.6-1.17-.6-1.26 0-1 .83.32 2-.06 2-.66a5.13 5.13 0 0 0-.89-1.68c-.74-1-1-1.17-1.73-.8s-.83.3-.83 0-.77-.83-1.71-1.31c-2.09-1.06-2.83-2.24-2.18-3.45.5-.92 2.25-1.56 3-1.1 1 .62 1.31-.3.48-1.47-2-2.84-4.84-2.65-8.34.55-2.26 2.07-2.45 2.63-1.18 3.31a1.57 1.57 0 0 1 .87 1.1 7.08 7.08 0 0 0 1.7 2.49c2.16 2.35 2.56 3.42 2.29 6.19l-.21 2.24 3 1.52c1.63.83 3 1.53 3.1 1.54a8.39 8.39 0 0 0 1.4-.64zm-11.89 120.54c-1.22-.69-1.39-1.05-1.71-3.6-.25-2-.15-2.48 1.07-4.46s1.33-2.39 1-4.58c-.39-3.15.28-4.81 2.11-5.21s5.47-3.68 6.36-5.62l.69-1.48.47 1.05c1.2 2.62 1.08 3.78-1 9.54-1.12 3.08-2.31 6.77-2.66 8.19-1.11 4.56-1.74 5.66-3.56 6.2s-1.74.58-2.82 0zM526.82 194c-1.38-1.5-2.21-2.8-2.21-3.45 0-1.45.24-1.32 1.48.8a17.54 17.54 0 0 0 2.39 3.1 5.37 5.37 0 0 1 1.31 1.61c0 .83-.92.19-3-2.06zm-22.7-20.63c-2.73-.86-4-1.66-5.05-3.26-1.23-1.83-3.47-3.21-4.62-2.84a4.39 4.39 0 0 0-1.74 1.78c-.83 1.41-1 1.49-2.51 1.22a6.43 6.43 0 0 1-2.77-1.36c-.8-.74-1.41-1-2-.78a2.32 2.32 0 0 1-1.58-.1c-.59-.34-.54-.49.41-1.11s1.1-.73.37-2.28c-.6-1.24-1.41-1.89-4.09-3.23a16.15 16.15 0 0 0-4.61-1.68c-1.61 0-2.27-1.48-1.06-2.36.72-.53.61-.66-1.26-1.57s-2-1-1.07-1.54a5.18 5.18 0 0 1 1.92-.56 2.91 2.91 0 0 1 2.29 2.62 4.27 4.27 0 0 0 .94 1.89c.92 1.17.94 1.17 1.61.33a12.16 12.16 0 0 1 2.68-2l2-1.14 2.76 1.25c1.51.68 3.67 1.57 4.78 2a31.07 31.07 0 0 1 5 2.65c3.07 2 4.41 3.73 3.64 4.65-.62.75 1.83 4.18 4.37 6.11 2.79 2.11 2.74 2.31-.32 1.34zm18.78 0c-.34-.41-.38-.65-.09-.65.52 0 1.13.81.83 1.11-.11.11-.44-.09-.74-.46zm-72.51-1.75c-.63-.35-.81-.6-.43-.61.77 0 2 .71 1.71 1-.11.11-.69-.07-1.28-.39zm7.3-.57a4.38 4.38 0 0 1 4.91-1.89c1.29.42 1.31.45.28.49a8.84 8.84 0 0 0-3.14 1.34c-2.56 1.62-3.18 1.64-2.05.06zm62.61.59c-.58-.71-.44-.79.61-.39.38.15.68.44.68.65 0 .52-.7.37-1.29-.34zm2-.38a4.73 4.73 0 0 1-.27-1.49c0-.48.17-.37.45.32a3 3 0 0 1 .26 1.49c-.08.24-.28.1-.44-.32zm-77-1.41c-.3-.13-.44-.41-.3-.62.33-.54 3.09-.51 3.43 0 .14.24 0 .44-.3.44a9.82 9.82 0 0 0-1.43.19 2.77 2.77 0 0 1-1.4 0zm6.4-.32c-.78-.95.12-1.24 2.16-.69s2 .64-.09 1c-1.1.2-1.7.1-2.07-.33zm64.8-.27c-.3-.47-.36-.86-.12-.86s.62.39.88.86.31.87.12.87-.59-.39-.88-.87zm2.7-.43c-1.16-1.28-.54-1.48.65-.21.56.59.81 1.07.57 1.07a2.58 2.58 0 0 1-1.22-.86zm-80.91-.08a33.4 33.4 0 0 1-4.84-1 6.45 6.45 0 0 0-2.92-.38c-1 .31-5.19-.92-5.19-1.53 0-1.38 3.87-1.48 5.93-.16.76.5 1.37.53 3 .16 1.8-.4 2.17-.35 3.23.43a4.8 4.8 0 0 0 1.63.89c.85 0 3.44 1.44 3.22 1.79a.79.79 0 0 1-.73.3c-.29 0-1.78-.23-3.32-.45zm77.46-2.08c-.43-.47-.59-.86-.35-.86a2.62 2.62 0 0 1 1.21.86c.43.48.59.87.35.87a2.64 2.64 0 0 1-1.21-.87zm-2.72-.54a5.29 5.29 0 0 1-.73-1.83c-.24-1.15-.22-1.2.24-.43a12.57 12.57 0 0 0 1.14 1.57c.36.42.44.82.2 1a.73.73 0 0 1-.85-.28zm-9.14-1.37l-1.08-.6 1.67-.31a7.91 7.91 0 0 0 3.12-1.59c.88-.77 1.46-1.05 1.45-.7 0 .88-.54 1.55-2.15 2.74s-1.61 1.23-3 .46zM423 163c-1.59-.91-4.45-4.4-5.38-6.57a23.84 23.84 0 0 0-2.56-4.29 31.82 31.82 0 0 1-2.3-3.45 15.61 15.61 0 0 0-2.46-3c-2.09-2-3.37-4.1-2.5-4.09 1.14 0 4.05 1.64 5.3 3 3.45 3.6 4.16 4.24 5.79 5.24s2.31 2 2.39 3.24a4.35 4.35 0 0 0 1 1.51l2.23 2.48a7.29 7.29 0 0 1 1.54 2.67c.5 2.29-1.34 4.31-3 3.34zm27.21-.29a1.88 1.88 0 0 1 0-1.28 2.58 2.58 0 0 0-.4-1.85c-.6-.92-.59-1.11.06-2.05a9.78 9.78 0 0 0 1.05-3.39 5.65 5.65 0 0 1 1.33-3.37c.94-1 1.18-1 3.3-.59 1.81.35 2.53.31 3.52-.21 1.66-.85 1.78-.81 1.23.39a2.41 2.41 0 0 1-3.08 1.49 2.75 2.75 0 0 1-.49-.23c-2.64-1.38-6.13.67-4.29 2.51.68.68 1.06.74 2.31.38 2.15-.62 3-.5 1.66.22-1.51.82-1.8 1.73-1 3.24a6.3 6.3 0 0 1 .65 2.36c0 1-.11 1.06-.87.65a4.68 4.68 0 0 1-1.52-2c-.65-1.56-.66-1.57-1.5-.73s-.79 1.06-.38 2.52.33 1.75-.12 2c-.76.49-1.11.47-1.44 0zm59.21-2.31a6.54 6.54 0 0 0-2.07-1.81c-.73-.38-1.24-.79-1.12-.91.67-.67 4.42 2.38 4.1 3.34-.1.29-.49 0-.91-.62zm-67.81-1.4a3.14 3.14 0 0 0-1.95-.38c-1.07.34-5.34-.53-5.76-1.17a37 37 0 0 1-1.85-5.93 2.51 2.51 0 0 1 .34-1.89c.49-.67.75-.72 1.53-.31s1 .37 1.45-.62a5.23 5.23 0 0 1 2.1-1.94 4.76 4.76 0 0 0 2.11-2.1 3.09 3.09 0 0 1 2-1.79 6.44 6.44 0 0 0 2.6-2c.62-.81 1.35-1.47 1.64-1.47a5.27 5.27 0 0 1 1.89 1.42l1.38 1.43-1.09 1.49c-1.26 1.7-1.19 3.15.23 5.15l.87 1.21-1.08.71c-.59.38-1.07.94-1.07 1.23 0 1-2.76 6.69-3.46 7.12-.48.3-1 .24-1.87-.19zm25.07 0c-.89-.23-1-1-.16-1a15.5 15.5 0 0 1 2 .29c1.21.24 1.31.34.59.62a3.18 3.18 0 0 1-2.46.09zm-1.51-6.67c-.35-.35-.37-.75-.07-1.31a1.49 1.49 0 0 0 .18-1.22c-.39-.63.58-2.15 1.37-2.15s.64.07 0 .8a1.54 1.54 0 0 0-.3 1.94c.69 1.8-.06 3-1.16 1.94zm-6.58-13.09c-.82-1.92-.93-2-2.2-1.73s-1.3.25-.83-.64c.39-.73.76-.87 1.68-.67a2.3 2.3 0 0 0 2.35-.82 3.56 3.56 0 0 0 1.17-1.85c0-1.08 1.61 2.57 2 4.52.28 1.48.24 1.56-.43 1-1-.83-2 0-1.15 1 .33.39.37.66.11.66a4 4 0 0 0-1.13.26c-.5.19-.91-.27-1.55-1.76zm-78.68.76a11.17 11.17 0 0 1-.41-5.23c.37-1 .4-1 1.5.65 1.32 2 1.74 3.19 1.31 3.86s-2.13 1.16-2.4.72zm66.16-4.77a12.9 12.9 0 0 1 1.93-2.48c1.55-1.73 1.92-2 1.94-1.26a5.29 5.29 0 0 1-1.44 2.48c-1.36 1.49-2.43 2-2.43 1.26zm9.35-1.15a1.91 1.91 0 0 1 .07-1.39c.31-.54.43-.54.86 0s.36.79-.07 1.38-.59.74-.86 0zM125 132.36c.26-.32.35-.71.19-.87s.12-.28.61-.28c.68 0 .84.2.67.86a1.14 1.14 0 0 1-1.09.86c-.67 0-.76-.12-.38-.57zm333.36-.12a11.37 11.37 0 0 0-.47-1.14c-.1-.18 0-.32.23-.32.43 0 1 1.77.72 2.09-.15.13-.36-.18-.52-.63zm-4.38-1.12a.94.94 0 0 1 .89-1.57c.57.12.59.3.14 1.15s-.63.89-1 .42zm5.11-1.49c-.5-.63-.83-1.21-.74-1.3.35-.35 1.56.42 2.21 1.4.95 1.52-.31 1.43-1.51-.1zM452 128a2.34 2.34 0 0 1-.7-1.19c0-.28.43-.07.95.45s.84 1.06.7 1.19-.56-.06-.95-.45zm-338.73-.06a1.15 1.15 0 0 1-.29-.73c0-.27.2-.25.51.06s.41.61.29.73a.36.36 0 0 1-.51-.06zm-2.45-.58c0-.23.09-.43.19-.43s.31.2.46.43.06.44-.19.44a.45.45 0 0 1-.46-.44zm20.28-.86c0-.24.09-.43.19-.43s.31.19.46.43.06.43-.19.43a.45.45 0 0 1-.46-.43zm325.24-.06a2.85 2.85 0 0 0-1.82-.19c-.84.21-1.41-.12-3-1.73-2.21-2.28-2.64-3.24-2-4.45a5.5 5.5 0 0 0 .46-2.15c0-2.34 1.57-2.24 2.72.17a2.73 2.73 0 0 1 0 3c-.64 1.55-.63 1.62.52 2.82.83.86 1.45 1.16 2.11 1a1.5 1.5 0 0 1 1.48.43c.78.94.44 1.6-.54 1.06zm-327.83-2.72c0-.1.2-.31.44-.46s.43-.06.43.2a.45.45 0 0 1-.43.45c-.24 0-.44-.08-.44-.19zm-1.29-3.21a1 1 0 0 1 .43-.7c.24-.14.43-.07.43.17a1 1 0 0 1-.43.7c-.24.14-.43.07-.43-.17zm-3.67-1.77c-.15-.25 0-.32.41-.17.75.29.89.6.26.6a1 1 0 0 1-.67-.43zm1.73-.87c-.15-.24-.06-.43.19-.43a.45.45 0 0 1 .46.43c0 .24-.09.43-.2.43s-.31-.19-.45-.43zm1.94 0c0-.24.09-.43.19-.43s.31.19.46.43.06.43-.19.43a.44.44 0 0 1-.46-.43zm-29.72-1.19a.83.83 0 0 1-.54-.61c0-.62 1.91-.46 2.83.24s.78.63-.45.61a7.15 7.15 0 0 1-1.84-.24zm10.92-.24a3.16 3.16 0 0 0-1.9-.13 4.65 4.65 0 0 1-2.25-.16c-.93-.37-.85-.42.71-.38 2.3 0 2.91-.32 2.33-1.42-.42-.78-.3-.83 1.76-.83s4.87.91 5.35 1.7c.33.52-5.23 1.65-6 1.22zm8.28.27c-.51-.51.12-1 1.25-1 .68 0 1 .21.91.54a1.7 1.7 0 0 1-2.16.46zm312.2-.71c-1.14-1.14 0-2.5 2.08-2.5.93 0 .93 0 .13 1.36-.92 1.59-1.47 1.87-2.21 1.14zm-308.63-.09c0-.09.29-.28.64-.41s.65-.06.65.17-.29.41-.65.41-.64-.07-.64-.17zm-18.66-3.09a5.77 5.77 0 0 0-2-.27c-1.36 0-1.68-.15-1.35-.55s-.14-.9-1.72-1.93c-3.12-2-4.85-2.4-6.94-1.57s-2.11.81-2.11.31c0-.9 3.43-1.89 5.91-1.7s3.69.68 8.33 3.16c3.82 2 3.82 2 2.59 2.4-1.4.4-2.39.45-2.69.15zm3.12-3.64c.84-.54 1.29-.54 1.29 0 0 .24-.43.43-1 .42-.78 0-.84-.08-.32-.42zm343.67-.77a4.2 4.2 0 0 1-1-1.3c-.44-.83-.39-1.22.26-2.34 1-1.72 1.69-1.94 2-.64s-.65 4.7-1.28 4.28zm-340.84-.57c.29-.47 1.92-.52 1.92-.06 0 .18-.49.35-1.08.38s-1-.11-.84-.32zM99 103.7c-.69-.79-.59-1.84.18-1.84.24 0 .34.38.22.85s0 .92.28 1 .37.3.23.45-.55-.06-.91-.48zm2.51-3.39c-.16-.4-.19-.82-.07-.94s.34.11.5.51.18.82.06.94-.34-.11-.49-.51zm-2.71-.39a.76.76 0 0 1 .82-.65c.73 0 .75.08.18.65a2.71 2.71 0 0 1-.82.65c-.1 0-.18-.29-.18-.65zm361.92-9.46a4.65 4.65 0 0 0-1.05-1.86c-1.37-1.62-.88-2.71.74-1.65a3.13 3.13 0 0 1 1.34 3.44c-.33.85-1 .9-1 .07zm2.4-3.13c-.28-.73.38-1.41 1.37-1.43.69 0 .7 1 0 1.64s-1.06.65-1.39-.21zm3.94-1.57c-.83-1.28-2-1.46-4.73-.7a3.14 3.14 0 0 1-2.37 0c-.41-.24-.53-.45-.25-.45a5.12 5.12 0 0 0 1.81-1.11 2.56 2.56 0 0 1 2.33-.84c.77.2 1.6-.17 3.36-1.49 3.41-2.57 3.72-3.38 2.33-6.12s-1-3.48 1-2.31c1.44.85 2.8 3.28 2.4 4.31a5.4 5.4 0 0 0 .47 2.57c.57 1.48.62 2.11.24 2.81-.55 1-2.09 1.73-3.85 1.73-1 0-1.27.25-1.59 1.37l-.4 1.38-.76-1.16zm-174.78-1.47c-.52-.52-.25-1 .57-1a1.47 1.47 0 0 0 1.11-.43c.4-.65 1.08-.52.82.15s-2.13 1.63-2.5 1.26zm-14.72-.75l-1.29-.54h1.72c2.15 0 3.74.36 3.42.87s-2.36.43-3.85-.25zm-17.43-4.31c-1.73-.88-1.81-1-.91-1.23 1.08-.28 3.47.07 3.42.51a5.9 5.9 0 0 1-.32 1c-.27.63-.48.6-2.19-.28zm-8.65-4.66c-.38-1.08-.35-1.49.14-2 .88-.88 1.56-.26 1.56 1.41 0 2-1.08 2.33-1.7.56zm-10.12.35c.3-.79 1.62-.93 1.35-.14a1.22 1.22 0 0 1-.89.68c-.5.1-.64-.06-.46-.54zM466.84 70c-.79-1.11-.81-1.32-.23-2.15s.57-1.06 0-2.2c-1-1.88-.84-2 .85-.71a13.47 13.47 0 0 0 3.65 1.79q3.65 1.08 1.75 1.69c-.48.15-.87.56-.87.9s-.3.55-1.19.32c-2.28-.58-2.92-.44-2.78.61.18 1.29-.11 1.23-1.16-.25zm-214.67.51a1 1 0 0 1 0-1.37 1 1 0 0 1 .35-.23c.47-.18.65 0 .65.82 0 1-.42 1.36-1 .78zm211.93-9.1a22 22 0 0 1-2-3.35 33.76 33.76 0 0 0-4.1-5.81c-1.77-2-2.68-3.3-2.34-3.41s.95.35 1.44 1a22.58 22.58 0 0 0 5 4.65c1.91 1.41 2.86 2.71 1.62 2.24-1.42-.55-1.07.75.78 2.82a20.44 20.44 0 0 1 1.95 2.4c0 .53-1.67.12-2.26-.55zm-318-2.15l-1.61-.17 3-3a17.69 17.69 0 0 1 3.51-3c.28 0 .19.32-.2.76-.9 1-.29 2.1 1.35 2.46a2.59 2.59 0 0 1 1.71 1.32c.44 1 .37 1.07-1.13 1.48s-3.44.48-6.66.14zm-105.19-3.1c-1.5-1.39-1.66-2-.67-2.36s2.52.77 3.15 2.13.64 1.49-.32 1.49a4.56 4.56 0 0 1-2.16-1.26zM231 54c.48-.23 1.41-.62 2.08-.86 1.47-.53 1.23-1.1-.63-1.47-1.28-.25-1.32-.32-.59-.85.43-.32.66-.78.51-1s.28-.66 1-.91 1.29-.64 1.29-.88c0-1-.9-2.67-1.4-2.61-1.15.15-1.68 0-1.5-.57a1.92 1.92 0 0 0-.19-1.29c-.56-1.08.72-3.32 1.91-3.34.17 0 .27.23.21.52s.35.6.91.69l1 .15-1 1-1 1 1.09.41c1.18.45 2.3 1.9 3.45 4.44.55 1.21.92 1.53 1.56 1.36 1.32-.34 1.47.55.24 1.36-.84.55-1 .86-.63 1.23s-.36.61-2.87 1c-1.85.27-4 .61-4.87.77-1.15.21-1.31.18-.65-.15zm-7.27-2.38a3 3 0 0 1 .37-1.94c.41-.79.48-1.35.21-1.51-.74-.47-.46-1.06.63-1.33a3.53 3.53 0 0 0 1.57-.87c.57-.7 3.23-.82 3.63-.18.15.24 0 .87-.41 1.39a4.41 4.41 0 0 0-.67 2.11c0 1-.29 1.25-1.83 1.79-1 .35-2.15.77-2.54.93a.65.65 0 0 1-.89-.21.67.67 0 0 1-.07-.18zm7.92-4.29c0-.1.2-.31.43-.46s.43-.06.43.19a.44.44 0 0 1-.43.46c-.23 0-.43-.09-.43-.19zM40.09 45.22c-.43-.51-.4-.75.13-1.19.88-.72 1.31-.23.8.91-.35.79-.48.83-.93.28zM39.41 42c-.14-.24 0-.67.38-1 .7-.58.85-.12.26.81-.23.36-.48.43-.64.19zm-27.89-.3c0-.3 1.31-.83 3.16-1.28.71-.17 1.12-.13 1 .09a2.77 2.77 0 0 1-1.44.64 14.8 14.8 0 0 0-2 .53c-.41.16-.75.17-.75 0zM268 36.85c-.8-.32-.66-.82.25-.89.44 0 .79.22.79.56 0 .64-.15.69-1 .33zm-94.83-2.21c-2.73-1.49-4-3.78-3.25-5.69a2.2 2.2 0 0 0 .05-2.11c-.72-1.33.21-2.9 2.6-4.37a8.93 8.93 0 0 0 2.43-2.11c.69-1.29.08-3.51-1.13-4.05-.61-.28-.94-.72-.8-1.07.3-.8-1.13-3.53-2.56-4.86-1.06-1-1.51-1.08-5.12-1.11-4.91 0-5.82-.3-5.74-1.71 0-.59.16-1.07.29-1.07s1.87-.2 3.88-.45a27.33 27.33 0 0 0 7.73-2.18C176 2 176.36 1.93 186.94 2.18a52 52 0 0 0 10.35-.83 32.78 32.78 0 0 1 7.84-.68 12.8 12.8 0 0 0 4.05-.22c2.36-.64 8.47.13 10.88 1.35 1.42.73 2.17.82 4.57.58 2.59-.25 2.79-.22 2 .35a9.39 9.39 0 0 1-3.24 1c-2.83.37-5.43 2.39-4.74 3.68.29.56.08 1-.88 2a6.92 6.92 0 0 0-1.5 1.94c-.3.94-4.12 2.71-6 2.77-2.1.07-2.32.52-.69 1.42a23.39 23.39 0 0 1 2.49 1.6l1.09.83-1 .36c-.76.28-1.37.1-2.63-.77-1.72-1.19-3.56-1.19-2.58 0 .39.46.3.64-.42.83-1.61.42-.47 1.25 1.3.95 1.12-.19 1.76-.09 2.11.33s-.13.74-3.27 1.4a41.13 41.13 0 0 1-6.15.83c-2.42 0-4.17.73-6.74 2.69a12.78 12.78 0 0 1-4.71 1.67c-4.35.83-5.83 1.79-8.45 5.53-2.11 3-3.38 4.12-4.7 4.13a10.26 10.26 0 0 1-2.8-1.17zm-30.6-2.88A9.29 9.29 0 0 1 140 29.4c-.9-1.43-1.73-1.61-4.17-.91a3.38 3.38 0 0 1-2.11.05c-1.28-.71 1-1.42 3.6-1.1 1.95.25 2.39.18 2.62-.41a3.23 3.23 0 0 1 3.72-1.52 2.71 2.71 0 0 0 2.28 0c1.24-.48 1.25-.52.45-1.11a3.28 3.28 0 0 0-1.17-.61 6.12 6.12 0 0 1-1.46-1.93 9.46 9.46 0 0 0-2.58-2.86c-1.36-.84-1.54-.85-2.76-.22-1.06.55-1.68.59-3.36.21a10.69 10.69 0 0 0-3.52-.19c-1.39.26-3.94-.42-3.94-1.06 0-1.16 3.66-3.76 5.83-4.14l1.72-.31-1.23 1.31c-1.7 1.82-1.06 2.65.79 1a7.46 7.46 0 0 1 3-1.55c1.33-.25 1.9-.09 3.57 1 2.23 1.48 2.4 1.52 3.66.84.75-.4 1-.29 1.85.74a7.13 7.13 0 0 0 3.08 1.88c2 .62 2.1.76 2.1 2.12a2.37 2.37 0 0 0 1 2.15c2.9 2.08 2.83 2 2.21 3-.86 1.38-1.54 1.48-3.44.51-1.33-.68-1.9-.77-2.57-.41s-.82.53-.17 1.8a2.28 2.28 0 0 1 .22 2.37c-.45 1-.52 1-1.74.37-2.41-1.25-4-.43-1.79.9.71.41 1.19.91 1.07 1.11-.42.67-2.56.31-4.23-.71zM126.26 30a3.19 3.19 0 0 0-2.7-.15c-2 .56-2.74.15-1.71-1 1.32-1.45 2.21-1.74 3.8-1.21 1.78.58 2.58 1.46 2.09 2.31-.3.55-.51.55-1.48 0zm85.74-.2a3.12 3.12 0 0 0-2-.63c-.54.18-.66 0-.5-.61.26-1 4.05-2.4 5.33-2a5.74 5.74 0 0 0 2.54-.25c1.49-.45 1.89-.42 2.89.24l1.17.77-1 .81c-.88.68-2.5 1.27-6.43 2.34a3.32 3.32 0 0 1-2-.67zM94.8 21.74a17.48 17.48 0 0 1-3.21-1.13l-2.13-.95 3-.22c1.64-.12 3-.41 3-.65s-1.16-.53-2.59-.66c-1.88-.17-2.23-.29-1.29-.43 1.57-.24 1.69-.93.21-1.3-1.06-.27-1-.28.44-.92a11.46 11.46 0 0 1 7.78-.61c2 .6 2.31.6 3.25 0 .67-.44 1.07-.51 1.1-.21s.08.71.11 1c.1.93 1 .81 2-.28s2.6-1.5 2.59-.76a7.25 7.25 0 0 1-.85 1.72l-.85 1.39 1.39.73 1.39.73-2.28 1c-2.07.94-2.49 1-4.34.55a5 5 0 0 0-4.11.39 6.13 6.13 0 0 1-4.59.6zm17.31-.3c-.39-.47-.23-.7.78-1.12a3.93 3.93 0 0 1 2.25-.22c.93.3.91.35-.51 1.1-1.81.97-1.9.98-2.52.24zm198.25-3.2c-2.21-.87-2.16-.82-1.52-1.59.3-.37.37-.67.17-.68s0-.3.48-.66.87-.79.87-1c0-.64 1.78-2.32 3-2.89a15.86 15.86 0 0 1 4.1-.81c1.54-.12 3.61-.35 4.59-.5s1.9-.09 2.05.16c.31.5-.27.71-3.62 1.31s-5.32 1.53-6.64 3.09-1.43 2.69-.16 3.58l1 .67h-1.29a10.38 10.38 0 0 1-3-.7zM84.34 17c-.69-.69-.54-.85 2.8-2.67 3.92-2.16 5.86-2.44 9.39-1.33l1.94.59-2.59.51a68.73 68.73 0 0 0-10.15 3.4 1.49 1.49 0 0 1-1.39-.5zm31.18-.56c0-.23-.54-.72-1.19-1.1l-1.19-.68 1.59.25c1.13.18 1.69.08 2-.36s3-1.56 4.14-1.57c.18 0 0 .58-.34 1.29-.91 1.67-5.01 3.46-5.01 2.16zm6.72-1.26c-.62-1 3.6-2.55 5.39-2 1.31.42.44 1.13-1.84 1.51a16.27 16.27 0 0 0-2.57.61.8.8 0 0 1-1-.14zM136 12c-2.85-.23-5.24-.47-5.3-.53-.39-.35.58-1.52 1.61-2s1.49-.36 2.88.35 2.24.8 4.76.62a19.5 19.5 0 0 1 4.32.09l1.22.31-1.51.8a5.93 5.93 0 0 1-2.16.76L136 12zm124.2-1.77c-2.12-1.08-2.32-1.58-.66-1.58a3.82 3.82 0 0 0 1.84-.48c.56-.4.55-.43-.06-.24a1.31 1.31 0 0 1-1.2-.28c-.38-.38-.58-.37-.83 0s-.71.42-1.6.15c-2.28-.68-2.79-1-2.79-1.66s.57-.63 4.1-.38c2.69.19 4.1.14 4.1-.15 0-.85 1.2-.43 1.52.53l.32 1 .19-1c.11-.53.47-1 .81-1a.59.59 0 0 0 .62-.52c0-.4.11-.4.51 0a7.58 7.58 0 0 0 3.46.52c3.08 0 3.81.55 1.75 1.33a8.69 8.69 0 0 1-5-.3c-.41-.13-.75-.07-.75.13 0 .4 2.43 1.86 3.08 1.86a2 2 0 0 1 1 .61c.51.52.51.64 0 .85-.35.13-.63 0-.63-.23s-.55-.36-1.55-.17-1.47.15-1.26-.19A1.06 1.06 0 0 0 267 8c-.55-.67-2.14-.88-2.14-.28a7.3 7.3 0 0 1-1.4 1.9L262 11.16l-1.82-.93zm-114.47-1a5.79 5.79 0 0 0-3.46-.41 6.32 6.32 0 0 1-3.36-.35c-.88-.5-.67-.56 2-.54 3.37 0 4.85-.69 3-1.47-.86-.37-.74-.41.75-.2 1.94.27 2.7-.25 1.64-1.13s.11-1.23 4.12-1q3.72.24 4.68-.27c1.22-.65.74-1.48-.65-1.13-1 .24-7.66-.16-7.38-.44s9.74-1 15.93-1.4c3.23-.2 6.82-.48 8-.63l2.13-.26-3.48 1.67c-3.27 1.57-8.57 3.1-10.75 3.1a11.22 11.22 0 0 0-3.4 1.29 12.64 12.64 0 0 1-3 1.3 13.77 13.77 0 0 0-3.13 1.29l-2.57 1.28-1.07-.65zm-8.42-3.94c-2.09-.46-2.17-.64-.63-1.43 2.24-1.16 4.36-1.46 5.32-.75.77.56.72.65-.78 1.53a4.25 4.25 0 0 1-3.91.65z"/>
    <path d="M97.31 85.22a2 2 0 1 1-2 2 1.95 1.95 0 0 1 2-2m0-.68a2.63 2.63 0 1 0 2.63 2.63 2.63 2.63 0 0 0-2.63-2.63zM37.7 64.48a2 2 0 1 1-2 2 2 2 0 0 1 2-2m0-.68a2.64 2.64 0 1 0 2.63 2.64 2.64 2.64 0 0 0-2.63-2.64zM35.52 75.36a2 2 0 1 1-2 2 2 2 0 0 1 2-2m0-.68a2.64 2.64 0 1 0 2.63 2.63 2.63 2.63 0 0 0-2.63-2.63zM54 70.64a2 2 0 1 1-1.95 2 2 2 0 0 1 1.95-2m0-.64a2.63 2.63 0 1 0 2.63 2.63A2.63 2.63 0 0 0 54 70zM91.32 70.19a2 2 0 1 1-1.95 2 2 2 0 0 1 1.95-2m0-.68A2.63 2.63 0 1 0 94 72.14a2.63 2.63 0 0 0-2.63-2.63zM106.7 77.54a2 2 0 1 1-2 1.95 2 2 0 0 1 2-1.95m0-.68a2.63 2.63 0 1 0 2.64 2.63 2.63 2.63 0 0 0-2.64-2.63zM151.67 197.42a2 2 0 1 1-2 2 2 2 0 0 1 2-2m0-.68a2.63 2.63 0 1 0 2.63 2.63 2.64 2.64 0 0 0-2.63-2.63zM110.49 62.59a2 2 0 1 1-2 2 2 2 0 0 1 2-2m0-.68a2.63 2.63 0 1 0 2.63 2.63 2.63 2.63 0 0 0-2.63-2.63zM130.06 53.55a2 2 0 1 1-1.95 2 2 2 0 0 1 1.95-2m0-.68a2.64 2.64 0 1 0 2.63 2.64 2.64 2.64 0 0 0-2.63-2.64zM83.88 72.82a2 2 0 1 1-2 2 2 2 0 0 1 2-2m0-.68a2.63 2.63 0 1 0 2.63 2.63 2.64 2.64 0 0 0-2.63-2.63zM45.81 83.8a2 2 0 1 1-2 2 2 2 0 0 1 2-2m0-.68a2.64 2.64 0 1 0 2.63 2.64 2.63 2.63 0 0 0-2.63-2.64zM61.68 95.59a1.95 1.95 0 1 1-2 2 2 2 0 0 1 2-2m0-.68a2.63 2.63 0 1 0 2.63 2.63 2.63 2.63 0 0 0-2.63-2.63zM73.16 90.15a1.95 1.95 0 1 1-2 1.95 2 2 0 0 1 2-1.95m0-.68a2.63 2.63 0 1 0 2.64 2.63 2.63 2.63 0 0 0-2.64-2.63zM365.55 109.46a2 2 0 1 1-2 2 1.95 1.95 0 0 1 2-2m0-.68a2.63 2.63 0 1 0 2.63 2.63 2.63 2.63 0 0 0-2.63-2.63zM370.81 113a2 2 0 1 1-1.95 2 2 2 0 0 1 1.95-2m0-.68a2.64 2.64 0 1 0 2.63 2.63 2.63 2.63 0 0 0-2.63-2.63zM377.75 126.21a2 2 0 1 1-1.95 2 2 2 0 0 1 1.95-2m0-.68a2.64 2.64 0 1 0 2.63 2.64 2.64 2.64 0 0 0-2.63-2.64zM448.52 76.08a2 2 0 1 1-2 2 2 2 0 0 1 2-2m0-.68a2.63 2.63 0 1 0 2.63 2.6 2.63 2.63 0 0 0-2.63-2.6zM454.41 79.85a2 2 0 1 1-2 2 2 2 0 0 1 2-2m0-.68a2.64 2.64 0 1 0 2.59 2.64 2.63 2.63 0 0 0-2.59-2.64zM473.15 79.7a2 2 0 1 1-2 2 2 2 0 0 1 2-2m0-.68a2.64 2.64 0 1 0 2.63 2.63 2.63 2.63 0 0 0-2.63-2.65zM465.44 82.27a2 2 0 1 1-1.95 2 2 2 0 0 1 1.95-2m0-.68a2.64 2.64 0 1 0 2.63 2.63 2.63 2.63 0 0 0-2.63-2.63zM434.91 105.39a2 2 0 1 1-2 2 2 2 0 0 1 2-2m0-.68a2.64 2.64 0 1 0 2.64 2.63 2.63 2.63 0 0 0-2.64-2.63zM420 141.21a2 2 0 1 1-2 1.95 2 2 0 0 1 2-1.95m0-.68a2.63 2.63 0 1 0 2.63 2.63 2.63 2.63 0 0 0-2.63-2.63zM479.12 224.33a2 2 0 1 1-2 1.95 2 2 0 0 1 2-1.95m0-.68a2.63 2.63 0 1 0 2.63 2.63 2.63 2.63 0 0 0-2.63-2.63zM497.79 210.79a2 2 0 1 1-2 2 2 2 0 0 1 2-2m0-.68a2.64 2.64 0 1 0 2.63 2.63 2.63 2.63 0 0 0-2.63-2.63z" class="cls-3"/>
    <path d="M286.41 199.37h-.18a2.2 2.2 0 0 0-.62.12l.2.64a2.08 2.08 0 0 1 .6-.09v-.68zm-1.53.49a3 3 0 0 0-.33.28h-.2l-.05.07.54.41a1.9 1.9 0 0 1 .43-.42l-.39-.56zm-1 1.29a2.4 2.4 0 0 0-.13.59v.26h.68a2 2 0 0 1 .1-.59l-.64-.22zm.62 1.41l-.65.2a1.82 1.82 0 0 0 .11.3h.15l.09.14.56-.38a1.85 1.85 0 0 1-.26-.55zm.67 1l-.42.54.28.19h.11l.28.13.24-.64a2.1 2.1 0 0 1-.53-.29zm1.72.35a2.32 2.32 0 0 1-.52.07h-.08v.68h.83l-.18-.65zm1-.66a1.72 1.72 0 0 1-.44.41l.37.57.25-.18h.12a1.84 1.84 0 0 0 .23-.25l-.52-.43zm.44-1.1a1.88 1.88 0 0 1-.13.58l.63.25.06-.15a2.54 2.54 0 0 0 .1-.55h-.68zm.28-1.52l-.57.36a2.13 2.13 0 0 1 .23.56l.66-.17-.06-.2h-.08a2 2 0 0 0-.17-.32zm-1.22-1l-.26.63a1.82 1.82 0 0 1 .51.32l.44-.52a2.54 2.54 0 0 0-.54-.36H287.39zm-1-.2v.68h.16l.06-.68h-.22zM270.1 213.29h-.21a2.94 2.94 0 0 0-.59.12l.21.65a1.7 1.7 0 0 1 .59-.1v-.68zm-1.53.49h-.05a2.79 2.79 0 0 0-.32.28h-.08l-.11.13.55.41a1.72 1.72 0 0 1 .43-.42l-.4-.56zm-1 1.29v.09a2.47 2.47 0 0 0-.08.6h.68a2 2 0 0 1 .1-.59l-.64-.22zm.62 1.41l-.65.2v.14h.05a.3.3 0 0 0 0 .1h.17l.05.07.56-.38a2.14 2.14 0 0 1-.26-.55zm.67 1l-.42.53.12.09h.16a3.55 3.55 0 0 0 .44.21l.23-.64a2.1 2.1 0 0 1-.53-.29zm1.72.34a2.25 2.25 0 0 1-.52.07H270v.68h.31a2.19 2.19 0 0 0 .5-.09l-.18-.65zm1-.65a2.15 2.15 0 0 1-.45.4l.37.57a1.89 1.89 0 0 0 .27-.2h.2l.14-.15-.53-.43zm.43-1.11a2 2 0 0 1-.13.59l.63.24a2.23 2.23 0 0 0 .13-.44v-.21h-.68zm.29-1.52l-.58.36a1.62 1.62 0 0 1 .23.56l.66-.17a1.42 1.42 0 0 0-.07-.22h-.05a2.4 2.4 0 0 0-.2-.39zm-1.23-1l-.26.63a1.91 1.91 0 0 1 .51.32l.44-.52a2.58 2.58 0 0 0-.65-.48zm-1-.2v.66h.16l.06-.68h-.22z" class="cls-4"/>
    <path d="M97.31 83.68a3.49 3.49 0 1 1-3.49 3.49 3.49 3.49 0 0 1 3.49-3.49m0-.68a4.17 4.17 0 1 0 4.16 4.17A4.17 4.17 0 0 0 97.31 83zM85.15 64.3a2 2 0 1 1-2 2 2 2 0 0 1 2-2m0-.68a2.63 2.63 0 1 0 2.63 2.63 2.62 2.62 0 0 0-2.63-2.63z" class="cls-3"/>
    <path d="M85.15 62.76a3.49 3.49 0 1 1-3.49 3.49 3.49 3.49 0 0 1 3.49-3.49m0-.68a4.17 4.17 0 1 0 4.16 4.17 4.17 4.17 0 0 0-4.16-4.17z" class="cls-3"/>
    <path d="M334.11 101.36h-.81l.21.65a2 2 0 0 1 .6-.09v-.68zm-1.53.49h-.07a2.53 2.53 0 0 0-.49.49l.55.41a1.91 1.91 0 0 1 .43-.42l-.4-.55zm-1 1.28v.15h-.09v.22h.68a2.09 2.09 0 0 1 .1-.6l-.64-.22zm.62 1.42l-.65.19a2.25 2.25 0 0 0 .08.24h.16a1.08 1.08 0 0 0 .11.18l.56-.38a2.24 2.24 0 0 1-.26-.54zm.67 1l-.42.53h.06l.14.11h.52l.23-.64a2.1 2.1 0 0 1-.53-.29zm1.72.34a1.81 1.81 0 0 1-.52.07H334v.68h.28a3.08 3.08 0 0 0 .53-.08l-.18-.66zm1-.65a1.9 1.9 0 0 1-.45.4l.37.57.22-.16h.07a3 3 0 0 0 .3-.32l-.52-.43zm.43-1.11a2 2 0 0 1-.13.59l.63.25a2.33 2.33 0 0 0 .17-.69h-.68zm.28-1.52l-.57.37a1.78 1.78 0 0 1 .23.55l.66-.17v-.11h-.05a2.47 2.47 0 0 0-.23-.46zm-1.22-1l-.26.62a1.91 1.91 0 0 1 .51.32l.44-.52a2.7 2.7 0 0 0-.67-.4zm-1-.2v.59h.16l.06-.68h-.22zM327.94 103H327.13l.21.65a2 2 0 0 1 .6-.09V103zm-1.53.49h-.05a3.16 3.16 0 0 0-.42.4h-.05l.54.4a2.19 2.19 0 0 1 .44-.42l-.4-.55zm-1 1.28a3.5 3.5 0 0 0-.13.56v.13h.68a2.09 2.09 0 0 1 .1-.6l-.64-.22zm.62 1.42l-.65.19a2.24 2.24 0 0 0 .35.73l.56-.38a1.92 1.92 0 0 1-.26-.54zm.67 1l-.42.54h.1a2.73 2.73 0 0 0 .61.32l.24-.64a2.1 2.1 0 0 1-.53-.29zm1.72.34a1.86 1.86 0 0 1-.52.07h-.08v.68h.39l.42-.08-.18-.66zm1-.65a1.9 1.9 0 0 1-.45.4l.37.57a2.7 2.7 0 0 0 .52-.44l.06-.07-.52-.43zm.43-1.11a2 2 0 0 1-.13.59l.63.25a1.21 1.21 0 0 0 .05-.14 1.59 1.59 0 0 0 .06-.3h-.68zm.28-1.51l-.57.36a2.06 2.06 0 0 1 .23.55l.66-.17a2.25 2.25 0 0 0-.28-.61zm-1.22-1l-.26.62a2.08 2.08 0 0 1 .51.32l.44-.52h-.19a2.88 2.88 0 0 0-.46-.24zm-1-.2v.68h.16l.06-.67h-.22z" class="cls-4"/>
    <path d="M491 220a1.95 1.95 0 1 1-2 2 1.95 1.95 0 0 1 2-2m0-.68a2.63 2.63 0 1 0 2.63 2.63 2.63 2.63 0 0 0-2.63-2.61z" class="cls-3"/>
    <path d="M491 218.48a3.49 3.49 0 1 1-3.48 3.49 3.5 3.5 0 0 1 3.48-3.49m0-.68a4.17 4.17 0 1 0 4.17 4.17 4.17 4.17 0 0 0-4.17-4.17zM97.31 82.26a4.91 4.91 0 1 1-4.91 4.91 4.92 4.92 0 0 1 4.91-4.91m0-.68a5.59 5.59 0 1 0 5.58 5.59 5.59 5.59 0 0 0-5.58-5.59zM226.3 46.57a1.95 1.95 0 1 1-2 2 2 2 0 0 1 2-2m0-.68a2.63 2.63 0 1 0 2.63 2.63 2.62 2.62 0 0 0-2.63-2.63zM232.74 50.14a2 2 0 1 1-2 2 2 2 0 0 1 2-2m0-.68a2.63 2.63 0 1 0 2.63 2.63 2.63 2.63 0 0 0-2.63-2.63zM238.82 48.21a1.95 1.95 0 1 1-1.95 1.95 2 2 0 0 1 1.95-1.95m0-.68a2.63 2.63 0 1 0 2.63 2.63 2.63 2.63 0 0 0-2.63-2.63zM244.86 63.85a1.95 1.95 0 1 1-2 1.95 1.95 1.95 0 0 1 2-1.95m0-.68a2.63 2.63 0 1 0 2.63 2.63 2.63 2.63 0 0 0-2.63-2.63zM241.46 58.59a2 2 0 1 1-2 1.95 1.95 1.95 0 0 1 2-1.95m0-.68a2.63 2.63 0 1 0 2.63 2.63 2.62 2.62 0 0 0-2.63-2.63z" class="cls-3"/>
    <path d="M248.41 58.7H248l-.39.1.21.64a2 2 0 0 1 .6-.09v-.65zm-1.53.49l-.15.11h-.12a2.28 2.28 0 0 0-.29.33l.54.41a2 2 0 0 1 .43-.43l-.39-.55zm-1 1.29a2.36 2.36 0 0 0-.14.8h.68a2 2 0 0 1 .1-.59l-.64-.22zm.62 1.41l-.65.19a3 3 0 0 0 .14.39 2.68 2.68 0 0 0 .18.28l.56-.38a1.68 1.68 0 0 1-.26-.54zm.67 1l-.42.54a2.73 2.73 0 0 0 .71.39l.23-.64a2.22 2.22 0 0 1-.52-.29zm1.71.34a1.75 1.75 0 0 1-.51.07h-.09v.68h.81l-.18-.66zm1-.65a1.9 1.9 0 0 1-.45.4l.37.57.13-.09h.18a2.91 2.91 0 0 0 .3-.31l-.53-.43zm.43-1.11a1.74 1.74 0 0 1-.13.59l.64.25a2 2 0 0 0 .1-.35 1.36 1.36 0 0 0 0-.2h-.68zm.29-1.51l-.58.36a1.92 1.92 0 0 1 .24.55l.66-.16a.56.56 0 0 0 0-.12c0-.11-.09-.23-.14-.34l-.09-.16zm-1.23-1l-.26.63a2.11 2.11 0 0 1 .52.31l.44-.51H250a2.77 2.77 0 0 0-.37-.22H249.46zm-1-.2v.68h.16l.05-.68h-.21zM254.11 58.94h-.2a3.29 3.29 0 0 0-.61.12l.21.65a2 2 0 0 1 .6-.09v-.68zm-1.53.49a1.33 1.33 0 0 0-.19.14h-.06a2.35 2.35 0 0 0-.33.43l.54.4a2.14 2.14 0 0 1 .46-.4l-.39-.55zm-1 1.28a2.81 2.81 0 0 0-.12.48v.13h.68a2 2 0 0 1 .1-.6l-.64-.22zm.62 1.41l-.66.2a.14.14 0 0 1 0 .06h.05a3.42 3.42 0 0 0 .21.43v.07l.57-.38a1.64 1.64 0 0 1-.26-.55zm.67 1l-.42.53a2.33 2.33 0 0 0 .5.31h.08l.13.06.23-.64a2 2 0 0 1-.52-.29zm1.71.34a2.24 2.24 0 0 1-.51.07H254v.67h.48a1.27 1.27 0 0 0 .28-.06l-.18-.65zm1-.65a2.15 2.15 0 0 1-.45.4l.37.57h.16a2.5 2.5 0 0 0 .41-.39l-.53-.43zm.43-1.11a1.74 1.74 0 0 1-.13.59l.64.24h.08a1.91 1.91 0 0 0 .06-.33v-.07h-.68zm.29-1.51l-.58.36a1.8 1.8 0 0 1 .24.55l.66-.17a2.86 2.86 0 0 0-.32-.74zm-1.23-1l-.26.63a1.84 1.84 0 0 1 .52.31l.44-.52h-.09l-.24-.16h-.17l-.17-.07zm-1-.2v.68h.16V59h-.21z" class="cls-4"/>
    <path d="M257 54.63a1.95 1.95 0 1 1-1.95 1.95 2 2 0 0 1 1.95-1.95m0-.68a2.63 2.63 0 1 0 2.63 2.63A2.63 2.63 0 0 0 257 54zM245.25 50.23a2 2 0 1 1-1.95 2 1.95 1.95 0 0 1 1.95-2m0-.68a2.63 2.63 0 1 0 2.63 2.63 2.63 2.63 0 0 0-2.63-2.63zM260.14 49.24a1.95 1.95 0 1 1-1.95 1.95 1.95 1.95 0 0 1 1.95-1.95m0-.68a2.63 2.63 0 1 0 2.63 2.63 2.63 2.63 0 0 0-2.63-2.63z" class="cls-3"/>
    <path d="M250.94 53.53h-.58a1 1 0 0 0-.23.06l.21.64a2 2 0 0 1 .6-.09v-.68zm-1.53.49a2.6 2.6 0 0 0-.43.38h-.1v.07l.54.41a2 2 0 0 1 .43-.43l-.39-.55zm-1 1.29h-.09a2.42 2.42 0 0 0-.05.47h.73a2 2 0 0 1 .11-.59l-.64-.22zm.62 1.41l-.66.19a2.73 2.73 0 0 0 .35.73l.56-.38a1.89 1.89 0 0 1-.25-.54zm.67 1l-.42.54h.1l.15.1h.28l.18.07.23-.64a2.22 2.22 0 0 1-.52-.29zm1.71.34a1.79 1.79 0 0 1-.51.07h-.09v.68h.8l-.18-.66zm1-.65a1.9 1.9 0 0 1-.45.4l.37.57a1.44 1.44 0 0 0 .25-.18h.08a3.83 3.83 0 0 0 .28-.29l-.53-.43zm.43-1.11a1.74 1.74 0 0 1-.13.59l.63.25a.49.49 0 0 0 0-.11 2.2 2.2 0 0 0 .12-.62h-.68zm.29-1.51l-.58.36a1.92 1.92 0 0 1 .24.55l.65-.16a2.25 2.25 0 0 0-.22-.58h-.09zm-1.23-1l-.26.63a2.11 2.11 0 0 1 .52.31l.44-.51-.18-.14h-.14a2 2 0 0 0-.36-.19zm-1-.2v.68h.16l.05-.68h-.21zM254.07 47.82h-.81l.21.65a2 2 0 0 1 .59-.09v-.68zm-1.53.49a2.61 2.61 0 0 0-.58.57l.54.4a2.14 2.14 0 0 1 .43-.42l-.39-.55zm-1 1.28a2.45 2.45 0 0 0-.14.8h.68a1.7 1.7 0 0 1 .1-.59zm.66 1.41l-.66.19h.19c.05.08.09.16.14.23l.57-.38a1.68 1.68 0 0 1-.26-.54zm.67 1l-.42.53a2.74 2.74 0 0 0 .46.29h.25l.23-.64a2 2 0 0 1-.52-.29zm1.71.34a1.79 1.79 0 0 1-.51.07H254v.68h.33a2.43 2.43 0 0 0 .47-.08l-.18-.66zm1-.65a1.9 1.9 0 0 1-.45.4l.37.57a2.72 2.72 0 0 0 .42-.34h.19l-.53-.43zm.43-1.11a1.74 1.74 0 0 1-.13.59l.63.25a2.76 2.76 0 0 0 .18-.74h-.68zm.29-1.51l-.58.36a1.92 1.92 0 0 1 .28.57l.65-.17a2.52 2.52 0 0 0-.21-.54.75.75 0 0 1-.07-.12zm-1.23-1l-.26.63a1.84 1.84 0 0 1 .52.31l.44-.52a2.36 2.36 0 0 0-.42-.28h-.08l-.2-.09zm-1-.2v.68h.16l.05-.68h-.21zM259.64 28.65H259l-.2.06.21.64a2 2 0 0 1 .59-.09v-.68zm-1.53.49a2.61 2.61 0 0 0-.58.57l.54.41a2 2 0 0 1 .43-.43l-.39-.55zm-1 1.29a2.45 2.45 0 0 0-.14.8h.68a2 2 0 0 1 .1-.59zm.62 1.41l-.66.19h.19l.14.24.57-.39a1.59 1.59 0 0 1-.26-.54zm.67 1l-.42.54a2.69 2.69 0 0 0 .46.28h.25l.23-.64a1.91 1.91 0 0 1-.52-.29zm1.71.34a1.79 1.79 0 0 1-.51.07h-.09v.68h.33a2.43 2.43 0 0 0 .47-.08l-.18-.66zm1-.65a2 2 0 0 1-.45.41l.37.56a2.65 2.65 0 0 0 .42-.33h.19l-.53-.43zm.43-1.11a1.69 1.69 0 0 1-.13.59l.63.25a2.43 2.43 0 0 0 .18-.74l-.68-.05zm.29-1.51l-.58.36a1.92 1.92 0 0 1 .24.55l.65-.16a2.66 2.66 0 0 0-.21-.53.75.75 0 0 1-.07-.12zm-1.23-1l-.26.63a2.11 2.11 0 0 1 .52.31l.44-.51a2.42 2.42 0 0 0-.42-.29h-.08l-.2-.09zm-1-.2v.68h.16l.05-.68h-.21zM252.53 30.15h-.6l-.2.06.21.64a2 2 0 0 1 .59-.09v-.68zm-1.52.49a2.42 2.42 0 0 0-.58.57l.54.41a2 2 0 0 1 .43-.43l-.39-.55zm-1 1.29a2.76 2.76 0 0 0-.15.8h.68a2 2 0 0 1 .11-.59zm.61 1.41l-.65.19h.19c0 .08.09.16.14.24l.56-.39a2.07 2.07 0 0 1-.26-.54zm.68 1l-.42.54a2.35 2.35 0 0 0 .46.28h.25l.23-.64a1.66 1.66 0 0 1-.52-.29zm1.71.34a1.81 1.81 0 0 1-.52.07h-.08v.68h.33a2.41 2.41 0 0 0 .48-.08l-.18-.66zm1-.65a2 2 0 0 1-.45.41l.44.56a2.65 2.65 0 0 0 .42-.33h.18l-.52-.43zm.43-1.11a2 2 0 0 1-.13.59l.63.25a2.41 2.41 0 0 0 .17-.74l-.68-.05zm.28-1.51l-.57.36a2.21 2.21 0 0 1 .23.55l.66-.16a2.66 2.66 0 0 0-.21-.53l-.08-.12zm-1.22-1l-.26.63a1.88 1.88 0 0 1 .51.31l.44-.51a2.34 2.34 0 0 0-.41-.29h-.09l-.19-.09zm-1-.2v.68h.17l.05-.68h-.22z" class="cls-4"/>
    <circle cx="85.15" cy="66.25" r="1.04" class="cls-5"/>
    <circle cx="37.7" cy="66.44" r="1.04" class="cls-5"/>
    <circle cx="241.46" cy="60.54" r="1.04" class="cls-5"/>
    <circle cx="245.25" cy="52.18" r="1.04" class="cls-5"/>
    <circle cx="226.3" cy="48.52" r="1.04" class="cls-5"/>
    <path d="M427.65 68.78a2 2 0 1 1-1.95 2 2 2 0 0 1 1.95-2m0-.68a2.64 2.64 0 1 0 2.64 2.64 2.64 2.64 0 0 0-2.64-2.64z" class="cls-3"/>
    <path d="M427.65 67.25a3.49 3.49 0 1 1-3.48 3.49 3.49 3.49 0 0 1 3.48-3.49m0-.68a4.17 4.17 0 1 0 4.17 4.17 4.17 4.17 0 0 0-4.17-4.17zM445.25 93.6a2 2 0 1 1-1.95 2 2 2 0 0 1 1.95-2m0-.68a2.64 2.64 0 1 0 2.63 2.64 2.64 2.64 0 0 0-2.63-2.64z" class="cls-3"/>
    <path d="M445.25 92.07a3.49 3.49 0 1 1-3.49 3.49 3.48 3.48 0 0 1 3.49-3.49m0-.68a4.17 4.17 0 1 0 4.16 4.17 4.17 4.17 0 0 0-4.16-4.17z" class="cls-3"/>
</svg>
